<svg width="14" height="14" viewBox="0 0 14 14" fill="none" xmlns="http://www.w3.org/2000/svg">
<path d="M13.6208 4.91428C13.8737 4.64281 14.0098 4.28228 13.9995 3.91087C13.9891 3.53945 13.8332 3.1871 13.5656 2.9302L11.0355 0.392421C10.7867 0.152934 10.4599 0.0119619 10.1155 -0.00439453H10.0695C9.7329 0.000561607 9.40818 0.121072 9.14944 0.337052L0.869099 8.6425C0.624317 8.89069 0.474482 9.2174 0.445882 9.56533L0.0134641 13.4135C-0.00448802 13.4956 -0.00448802 13.5806 0.0134641 13.6627C0.0440792 13.7375 0.0876913 13.8062 0.142269 13.8657C0.19283 13.916 0.252057 13.9566 0.317077 13.9857C0.386995 13.9989 0.458766 13.9989 0.528685 13.9857H0.602288L4.42044 13.635C4.76732 13.6063 5.09305 13.456 5.34048 13.2105L13.6208 4.91428ZM10.0143 0.899977L13.0504 3.95454L10.6859 6.28006L7.70498 3.31779L10.0143 0.899977ZM1.15431 12.8967L1.48552 9.50073L1.57753 9.40845L7.00575 3.98222L10.0143 7.0091L4.49405 12.5461L1.15431 12.8967Z" fill="#7A7F86"/>
</svg> 