<svg width="13" height="17" viewBox="0 0 13 17" fill="none" xmlns="http://www.w3.org/2000/svg">
<path d="M6.50092 -0.00439453C7.17927 -0.00442113 7.83125 0.277349 8.32002 0.78177C8.80878 1.28619 9.09632 1.97404 9.12228 2.70093L9.1241 2.80856H12.4316C12.5774 2.80906 12.7176 2.86948 12.8232 2.97739C12.9288 3.0853 12.9918 3.2325 12.9992 3.38871C13.0067 3.54491 12.9581 3.69826 12.8634 3.8172C12.7687 3.93614 12.635 4.01163 12.49 4.02815L12.4316 4.03158H11.9339L11.1569 15.073C11.1201 15.5959 10.9005 16.0845 10.5419 16.441C10.1834 16.7975 9.71251 16.9956 9.22355 16.9956H3.77829C3.28933 16.9956 2.81843 16.7975 2.45991 16.441C2.10138 16.0845 1.88171 15.5959 1.84489 15.073L1.06752 4.03158H0.570256C0.42908 4.03165 0.292898 3.97556 0.188063 3.87416C0.0832285 3.77277 0.0171935 3.63328 0.00273703 3.48268L0 3.42007C0 3.10355 0.224453 2.8428 0.511862 2.81198L0.570256 2.80856H3.87774C3.87774 2.06251 4.15411 1.34703 4.64605 0.8195C5.13799 0.291969 5.80521 -0.00439453 6.50092 -0.00439453ZM10.7902 4.03158H2.21168L2.98267 14.981C2.99785 15.1962 3.08824 15.3973 3.23577 15.5441C3.38329 15.6908 3.57706 15.7725 3.77829 15.7726H9.22355C9.42486 15.7726 9.61875 15.691 9.76637 15.5442C9.91399 15.3975 10.0044 15.1963 10.0196 14.981L10.7906 4.03158H10.7902ZM7.98359 6.59992C8.27875 6.59992 8.52191 6.84061 8.55111 7.14881L8.55384 7.21143V12.5927C8.55453 12.75 8.49869 12.9015 8.39794 13.0157C8.29719 13.13 8.15927 13.1982 8.01282 13.2063C7.86638 13.2143 7.72266 13.1616 7.61153 13.059C7.5004 12.9564 7.4304 12.8118 7.41607 12.6553L7.41333 12.5927V7.21143C7.41333 6.87388 7.66881 6.59992 7.98359 6.59992ZM5.01825 6.59992C5.31342 6.59992 5.55658 6.84061 5.58577 7.14881L5.58851 7.21143V12.5927C5.58919 12.75 5.53336 12.9015 5.43261 13.0157C5.33186 13.13 5.19394 13.1982 5.04749 13.2063C4.90104 13.2143 4.75733 13.1616 4.6462 13.059C4.53507 12.9564 4.46507 12.8118 4.45074 12.6553L4.448 12.5927V7.21143C4.448 6.87388 4.70347 6.59992 5.01825 6.59992ZM6.50092 1.21863C6.12221 1.2186 5.75784 1.37398 5.48257 1.65288C5.20729 1.93179 5.04198 2.31308 5.02054 2.71854L5.01825 2.80856H7.98359C7.98359 2.38688 7.82738 1.98248 7.54932 1.68431C7.27127 1.38614 6.89415 1.21863 6.50092 1.21863Z" fill="#7A7F86"/>
</svg> 