<svg width="50" height="50" viewBox="0 0 50 50" fill="none" xmlns="http://www.w3.org/2000/svg">
<circle cx="25" cy="25" r="25" fill="#5551F7"/>
<path d="M29.5 7.13694C29.5 6.7391 29.3419 6.35764 29.0609 6.07627C28.7795 5.79529 28.3981 5.63711 28.0002 5.63711H22.0002C21.6024 5.63711 21.2209 5.79529 20.9395 6.07627C20.6582 6.35762 20.5 6.73908 20.5 7.13694V8.63711H29.5L29.5 7.13694Z" fill="white"/>
<path d="M9 16.7368V36.5367C9 36.8284 9.1406 37.1082 9.39036 37.3145C9.64045 37.5208 9.97952 37.6365 10.3332 37.6365H17V15.6365H10.3332C9.97954 15.6365 9.64046 15.7523 9.39036 15.9586C9.1406 16.1649 9 16.4447 9 16.7364V16.7368ZM11.6666 20.0367L14.3333 20.0369V22.2369H11.6666V20.0367ZM11.6666 24.4367L14.3333 24.437V26.637H11.6666V24.4367ZM11.6666 28.8368H14.3333V31.0368H11.6666V28.8368Z" fill="white"/>
<path d="M30.8331 9.63711H19.1665C18.8571 9.63711 18.5604 9.75984 18.3416 9.97868C18.1227 10.1975 18 10.4942 18 10.8036V37.6365H32V10.8036C32 10.4942 31.8773 10.1975 31.6584 9.97868C31.4396 9.75985 31.1429 9.63711 30.8335 9.63711H30.8331ZM22.6664 21.3037V18.9703H27.333V21.3037H22.6664ZM27.333 23.637V25.9703H22.6664V23.637H27.333ZM22.6664 16.637V14.3037H27.333V16.637H22.6664ZM22.6664 28.3035H27.333V30.6368L22.6664 30.6365V28.3035Z" fill="white"/>
<path d="M39.6668 15.6365H33V37.6365H39.6668C40.0205 37.6365 40.3595 37.5208 40.6096 37.3145C40.8597 37.1082 41 36.8284 41 36.5367V16.7368C41 16.445 40.8597 16.1653 40.6096 15.959C40.3596 15.7526 40.0205 15.6365 39.6668 15.6365ZM38.3333 31.0361H35.6667V28.8361H38.3333V31.0361ZM38.3333 26.6361L35.6667 26.6363V24.4363H38.3333V26.6361ZM38.3333 22.236L35.6667 22.2363V20.0363H38.3333V22.236Z" fill="white"/>
<g clip-path="url(#clip0_8048_8109)">
<path d="M16 27C16 31.9706 20.0294 36 25 36C29.9706 36 34 31.9706 34 27C34 22.0294 29.9706 18 25 18C20.0294 18 16 22.0294 16 27Z" fill="#5551F7"/>
<path d="M23.2935 22.5674L24.4196 29.4055C24.5403 30.0708 25.4653 30.0708 25.586 29.4055L26.6719 22.5674C26.8729 19.9061 23.0924 19.9061 23.2935 22.5674Z" fill="white"/>
<path d="M24.9827 33.307C25.6855 33.307 26.2553 32.7372 26.2553 32.0343C26.2553 31.3314 25.6855 30.7616 24.9827 30.7616C24.2798 30.7616 23.71 31.3314 23.71 32.0343C23.71 32.7372 24.2798 33.307 24.9827 33.307Z" fill="white"/>
</g>
<defs>
<clipPath id="clip0_8048_8109">
<rect width="18" height="18" fill="white" transform="translate(16 18)"/>
</clipPath>
</defs>
</svg>
