<svg width="51" height="50" viewBox="0 0 51 50" fill="none" xmlns="http://www.w3.org/2000/svg">
<circle cx="25.5" cy="25" r="25" fill="#FF802E"/>
<path fill-rule="evenodd" clip-rule="evenodd" d="M38.2204 26.3197C37.8529 33.2018 32.1755 40.1592 25.5002 42.0968H25.4998C18.8248 40.1599 13.1476 33.2011 12.7796 26.3197L12 11.7602L15.012 11.1443L16.8247 14.4942L15.3324 15.8841L18.6023 20.7486L18.2951 16.4487L20.9505 14.2553L18.5257 10.4259L25.5 9L39 11.7602L38.2204 26.3197ZM28.6691 25.4714H22.3316H22.3312C20.6199 25.4714 19.2185 26.8571 19.2185 28.5516C19.2185 36.4951 31.7817 36.4951 31.7817 28.5516C31.7817 26.8571 30.3815 25.4714 28.6691 25.4714ZM29.207 20.2555C29.207 18.2296 27.5475 16.5873 25.5002 16.5873C23.453 16.5873 21.7934 18.2296 21.7934 20.2555C21.7934 22.2813 23.453 23.9236 25.5002 23.9236C27.5475 23.9236 29.207 22.2813 29.207 20.2555Z" fill="white"/>
</svg>
