<svg width="51" height="50" viewBox="0 0 51 50" fill="none" xmlns="http://www.w3.org/2000/svg">
<circle cx="25.5" cy="25" r="25" fill="#202993"/>
<path d="M25.6104 7.15054C30.1102 7.15069 33.7627 10.8003 33.7627 15.297V18.4064H34.5225C36.4367 18.4065 38 19.9539 38 21.881V29.6916C38 36.5828 32.3886 42.1896 25.5068 42.1896C18.6109 42.1894 13.0003 36.5825 13 29.6916V21.881C13 19.9539 14.5633 18.4065 16.4775 18.4064H17.2373V15.297C17.2373 10.8006 20.8906 7.15054 25.3906 7.15054H25.6104ZM25.3574 21.0988C24.9576 21.0988 24.6328 21.4226 24.6328 21.8224V23.1086C23.6957 23.3147 22.9639 23.7399 22.4375 24.3839C21.9239 25.0282 21.667 25.8402 21.667 26.8195C21.667 27.3864 21.7825 27.8759 22.0137 28.2882C22.2577 28.6877 22.5661 29.0358 22.9385 29.3322C23.3236 29.6155 23.7277 29.8671 24.1514 30.0861C24.5751 30.3051 24.9733 30.511 25.3457 30.7043C25.7309 30.8846 26.0394 31.0782 26.2705 31.2843C26.5144 31.4776 26.6367 31.7034 26.6367 31.9611C26.6366 32.3345 26.5335 32.6118 26.3281 32.7921C26.1226 32.9595 25.7758 33.0431 25.2881 33.0431C24.8902 33.0431 24.4792 32.9595 24.0557 32.7921C23.8115 32.6956 23.5497 32.5619 23.2715 32.3927C22.9136 32.1754 22.4395 32.261 22.2148 32.6144L21.5332 33.6847C21.3434 33.9833 21.3947 34.3804 21.6826 34.5861C22.0452 34.8452 22.4382 35.0587 22.8613 35.2267C23.4903 35.4586 24.0808 35.6066 24.6328 35.6711V36.88C24.6328 37.2799 24.9576 37.6046 25.3574 37.6046H26.0664C26.4662 37.6046 26.79 37.2799 26.79 36.88V35.5558C27.8044 35.311 28.556 34.847 29.0439 34.1642C29.5448 33.4813 29.7949 32.6693 29.7949 31.7287C29.7949 31.136 29.6737 30.6332 29.4297 30.2209C29.1986 29.8087 28.89 29.4613 28.5049 29.1779C28.1325 28.8944 27.7343 28.6487 27.3105 28.4425C26.8868 28.2235 26.4819 28.0309 26.0967 27.8634C25.7246 27.6832 25.4167 27.5027 25.1729 27.3224C24.9418 27.1292 24.8263 26.9099 24.8262 26.6652C24.8262 26.2786 24.9283 26.014 25.1338 25.8722C25.3392 25.7305 25.6477 25.6603 26.0586 25.6603C26.4181 25.6603 26.7524 25.7372 27.0605 25.8918C27.1988 25.9584 27.3394 26.0396 27.4824 26.1349C27.8188 26.3591 28.2786 26.3372 28.543 26.0314L29.2734 25.1857C29.5154 24.9058 29.5107 24.484 29.2305 24.2423C28.9734 24.0206 28.699 23.8231 28.4082 23.6496C27.9331 23.3533 27.3935 23.1597 26.79 23.0695V21.8224C26.79 21.4226 26.4662 21.0988 26.0664 21.0988H25.3574ZM25.3906 10.0705C22.4976 10.0705 20.1602 12.4063 20.1602 15.297V18.3918H30.8398V15.297C30.8398 12.4063 28.5024 10.0705 25.6094 10.0705H25.3906Z" fill="white"/>
</svg>
