<svg width="51" height="50" viewBox="0 0 51 50" fill="none" xmlns="http://www.w3.org/2000/svg">
<circle cx="25.5" cy="25" r="25" fill="#FCD4A4"/>
<path d="M12.6663 9.06928C11.3566 9.06928 10.2914 10.1349 10.2914 11.4442C10.2914 12.754 11.357 13.8192 12.6663 13.8192H30.2914C29.3966 12.3807 29.3966 10.5077 30.2914 9.06921L12.6663 9.06928Z" fill="white"/>
<path d="M34.3109 9.10712C35.6562 9.11746 36.7504 10.2191 36.7504 11.5651V40.4499H13.7504V16.0427L34.3304 16.0417C34.9244 16.0417 35.4066 15.5604 35.4066 14.9665C35.4066 14.3725 34.9244 13.8913 34.3304 13.8913C33.0114 13.8911 31.9388 12.8178 31.9388 11.4987C31.9389 10.1893 33.0022 9.11788 34.3109 9.10712ZM19.9994 35.6452C19.4472 35.6454 18.9994 36.093 18.9994 36.6452C18.9995 37.1974 19.4473 37.645 19.9994 37.6452C20.5517 37.6452 21.0003 37.1975 21.0004 36.6452C21.0004 36.0928 20.5518 35.6452 19.9994 35.6452ZM26.5267 37.2243H33.8041V35.0729H26.5267V37.2243ZM20.9955 30.1403C21.1137 28.6199 18.8861 28.62 19.0043 30.1403L19.6449 34.0485C19.7163 34.4282 20.26 34.4282 20.3314 34.0485L20.9955 30.1403ZM26.5267 32.2302H33.8041V30.0798H26.5267V32.2302ZM26.5267 26.4684H33.8041V24.3181H26.5267V26.4684ZM19.0658 23.7477L18.0463 22.6315L16.4584 24.0827L18.2328 26.0241C18.6388 26.4684 19.3555 26.4867 19.7836 26.0632L24.1654 21.7272L22.6527 20.1979L19.0658 23.7477ZM26.5267 21.4753H33.8041V19.3249H26.5267V21.4753Z" fill="white"/>
</svg>
