<svg width="51" height="50" viewBox="0 0 51 50" fill="none" xmlns="http://www.w3.org/2000/svg">
<circle cx="25.5" cy="25" r="25" fill="#9F3C00"/>
<path d="M20.3487 39.4098C20.1604 39.5735 19.9126 39.6649 19.6629 39.6649C19.3563 39.6649 19.0658 39.5307 18.8663 39.2967C18.6988 39.1027 18.6063 38.8538 18.6063 38.5963C18.6063 38.4511 18.6365 38.3033 18.6932 38.1698C18.7105 38.13 18.7358 38.0939 18.7682 38.0647L21.5343 35.551C21.5666 35.5215 21.605 35.4997 21.6469 35.4864C22.0154 35.3704 22.4515 35.4805 22.7295 35.7775C23.1291 36.2071 23.1061 36.8858 22.6787 37.2913L20.3487 39.4098ZM20.9874 33.585C20.7831 33.3672 20.5086 33.2472 20.2138 33.2472C20.1135 33.2472 20.0175 33.2606 19.9273 33.2868C19.8833 33.2995 19.8428 33.3222 19.8086 33.3529L16.7848 36.0968C16.7511 36.1277 16.7246 36.1654 16.7077 36.2073C16.6555 36.3366 16.6281 36.4781 16.6281 36.6167C16.6281 36.8741 16.7208 37.1231 16.8881 37.3173C17.0879 37.5511 17.3781 37.6853 17.6846 37.6853C17.9338 37.6853 18.1819 37.5939 18.3705 37.4302L20.9371 35.0983C21.3638 34.6933 21.387 34.0148 20.9874 33.585ZM24.7845 37.6747C24.4416 37.3088 23.864 37.2386 23.4584 37.4974C23.4439 37.5067 23.4303 37.517 23.4176 37.5288L20.503 40.1822C20.4883 40.1956 20.4749 40.2103 20.4632 40.2263C20.3316 40.4052 20.262 40.6216 20.262 40.8528C20.262 41.0362 20.3072 41.3074 20.5218 41.5564C20.7223 41.791 21.0129 41.9255 21.3193 41.9255C21.5718 41.9255 21.8135 41.8358 22.0044 41.669L24.7335 39.191C25.1608 38.7863 25.1844 38.1065 24.7846 37.6747L24.7845 37.6747ZM26.7971 40.4398C26.769 40.2281 26.6758 40.0309 26.5264 39.8688C26.3229 39.6496 26.0523 39.5323 25.7441 39.5297C25.7303 39.5332 25.6907 39.533 25.6759 39.5351C25.6 39.5395 25.5239 39.5538 25.4499 39.5768C25.408 39.5896 25.3696 39.6121 25.337 39.6414L22.3978 42.3143C22.3652 42.3443 22.3392 42.3808 22.3224 42.4218C22.2683 42.5518 22.2409 42.6907 22.2409 42.8347C22.2409 43.0919 22.3315 43.3397 22.4971 43.5344C22.7224 43.7976 23.158 43.9374 23.3855 43.9374C23.6061 43.9374 23.8298 43.7822 23.9829 43.6484L26.4764 41.3842C26.7107 41.1615 26.8311 40.8507 26.8036 40.504C26.8013 40.4918 26.7999 40.4794 26.7971 40.4398L26.7971 40.4398ZM14.6253 25.1812H13.7191L13.7188 24.3022C13.7188 24.1354 13.5835 24.0001 13.4167 24.0001H11.3021C11.1354 24.0001 11 24.1354 11 24.3022V36.6965C11 36.8633 11.1354 36.9987 11.3021 36.9987H13.4167C13.5835 36.9987 13.7188 36.8633 13.7188 36.6965V35.7843H14.625C14.7918 35.7843 14.9272 35.6489 14.9272 35.4821V25.4832C14.9272 25.3164 14.7918 25.181 14.6253 25.181L14.6253 25.1812ZM35.4686 26.9966H30.3333C30.2956 26.9966 30.2586 26.9896 30.2237 26.976C29.4938 26.6917 28.8097 26.3555 28.2061 26.0588C27.2341 25.5812 26.3944 25.1688 25.7841 25.1688C25.7154 25.1688 25.6513 25.1741 25.5922 25.1842C25.5627 25.1894 25.5337 25.1987 25.5067 25.2126C25.0128 25.4627 23.7449 27.1222 23.0439 28.1649C23.0334 28.1806 23.0212 28.1951 23.0081 28.2087C22.8071 28.412 22.6966 28.682 22.6966 28.969C22.6966 29.2542 22.8071 29.5229 23.0081 29.726C23.4072 30.1302 24.1019 30.1305 24.4998 29.726L26.9618 27.2397C27.018 27.183 27.096 27.1477 27.1861 27.1502C27.2697 27.1531 27.3496 27.191 27.4042 27.2542L33.9548 34.8104C34.0129 34.8772 34.0965 34.9146 34.1832 34.9146C34.2008 34.9146 34.2183 34.9132 34.2357 34.9102C34.3401 34.8914 34.4275 34.8195 34.4652 34.7202C34.5125 34.5954 34.5462 34.4876 34.5619 34.4083C34.5682 34.3752 34.5694 34.3415 34.565 34.3082C34.5563 34.2436 34.568 34.1797 34.5992 34.1223C34.6516 34.026 34.7528 33.9656 34.8629 33.9649L35.4688 33.9632L35.4686 26.9966ZM39.6979 24H37.5833C37.4165 24 37.2812 24.1354 37.2812 24.3021V25.1812H36.375C36.2082 25.1812 36.0728 25.3165 36.0728 25.4833V35.4822C36.0728 35.649 36.2082 35.7844 36.375 35.7844H37.2812V36.6967C37.2812 36.8634 37.4165 36.9988 37.5833 36.9988H39.6979C39.8646 36.9988 40 36.8634 40 36.6967V24.3023C40 24.1356 39.8646 24.0002 39.6979 24.0002V24ZM34.6886 35.6862C34.6612 35.7403 34.6333 35.7944 34.6029 35.8523C34.5563 35.9406 34.4696 36.0001 34.3705 36.0115C34.3588 36.0127 34.3474 36.0136 34.3354 36.0136C34.2487 36.0136 34.1654 35.9762 34.1077 35.9101C34.0892 35.8883 28.3492 29.2671 27.162 27.8971L24.9292 30.1514C24.6177 30.4683 24.2012 30.6435 23.7574 30.6442H23.755C23.3107 30.6442 22.8929 30.469 22.5783 30.1512C22.2647 29.8341 22.0923 29.4144 22.0923 28.9691C22.0923 28.532 22.2572 28.1196 22.5579 27.8053C22.9388 27.2403 24.6486 24.7628 25.4386 24.5984C25.4456 24.597 25.4529 24.5956 25.4597 24.5948C25.4714 24.5927 25.4838 24.5934 25.4953 24.5916C24.6905 24.4616 23.7347 24.9256 22.5322 25.516C21.9525 25.8006 21.2971 26.1219 20.6095 26.393L15.5314 26.3927V34.5677L15.8539 34.5688C15.9083 34.8084 16.0446 35.1649 16.32 35.7032L19.4883 32.8281C19.5124 32.8064 19.5396 32.7886 19.5696 32.7757C19.7689 32.6878 19.9856 32.6433 20.2139 32.6433C20.6707 32.6433 21.1133 32.8361 21.4284 33.172C21.8591 33.635 21.9694 34.2803 21.783 34.8452C21.8406 34.8391 21.8989 34.8361 21.9572 34.8361C22.414 34.8361 22.8566 35.0288 23.1717 35.3647C23.5408 35.7617 23.6741 36.2927 23.5888 36.7923C23.7263 36.7558 23.8685 36.7331 24.0144 36.7331C24.4756 36.7331 24.9058 36.9207 25.2255 37.2614C25.6565 37.7273 25.7663 38.3751 25.5787 38.9408C25.5937 38.9394 25.6082 38.9347 25.6234 38.9336C25.6675 38.9272 25.7089 38.9261 25.7541 38.9261C26.2193 38.9261 26.6507 39.1151 26.9695 39.4587C27.2049 39.7142 27.352 40.0257 27.3963 40.3614C27.3996 40.3773 27.4033 40.3988 27.4045 40.4241C27.4085 40.4492 27.4094 40.4708 27.4096 40.4867C27.4478 40.9874 27.2597 41.4739 26.8927 41.8224L25.478 43.1071L26.6154 44.0995C26.9199 44.3661 27.3014 44.5092 27.7008 44.5092C27.7404 44.5092 27.7802 44.508 27.82 44.5049C28.2643 44.4736 28.6698 44.2686 28.9628 43.9276C29.2214 43.6238 29.364 43.2355 29.364 42.8352C29.364 42.7174 29.3514 42.6014 29.3277 42.4883C29.4427 42.5136 29.56 42.5309 29.68 42.5309C29.7203 42.5309 29.7605 42.5295 29.8011 42.5265C30.2442 42.4944 30.648 42.2897 30.9372 41.9508C31.1986 41.647 31.3424 41.2573 31.3424 40.8537C31.3424 40.6504 31.3059 40.4515 31.2373 40.2667C31.3099 40.2709 31.383 40.2707 31.4565 40.2653C31.8994 40.2332 32.303 40.0295 32.592 39.6917C32.8536 39.3882 32.9975 38.9994 32.9975 38.5972C32.9975 38.4801 32.9853 38.3644 32.9621 38.252C33.1167 38.2855 33.2771 38.2969 33.4387 38.285C33.8805 38.2524 34.2824 38.0491 34.5709 37.7126C34.8323 37.4088 34.9764 37.0202 34.9764 36.6185C34.9766 36.2836 34.8726 35.9615 34.689 35.6866L34.6886 35.6862Z" fill="white"/>
<path d="M24.7344 5.61635C25.1596 4.79455 25.8404 4.79454 26.2656 5.61635L33.835 20.4982C34.2599 21.32 33.8347 22 32.8994 22.0001H18.1006C17.1653 22.0001 16.7401 21.32 17.1651 20.4982L24.7344 5.61635ZM25.5 17.9445C25.0059 17.9445 24.6055 18.3458 24.6055 18.84C24.6056 19.334 25.006 19.7345 25.5 19.7345C25.994 19.7345 26.3944 19.334 26.3945 18.84C26.3945 18.3459 25.9941 17.9445 25.5 17.9445ZM26.8359 11.4523C26.995 9.41123 24.005 9.41123 24.1641 11.4523L25.0234 16.6964C25.119 17.2065 25.8498 17.2065 25.9453 16.6964L26.8359 11.4523Z" fill="white"/>
</svg>
