<svg width="51" height="50" viewBox="0 0 51 50" fill="none" xmlns="http://www.w3.org/2000/svg">
<circle cx="25.5" cy="25" r="25" fill="#BBBAFC"/>
<path d="M19.3472 31.4673C19.9079 32.028 20.8137 32.028 21.3745 31.4673L31.6525 21.1893C32.2132 20.6285 32.2132 19.7227 31.6525 19.162C31.0917 18.6012 30.1859 18.6012 29.6251 19.162L19.3472 29.44C18.7866 30.0007 18.7866 30.9095 19.3472 31.4673Z" fill="white"/>
<path d="M24.2637 29.4015C24.3227 30.2396 24.0335 31.1012 23.3932 31.7416L20.0615 35.07C18.8901 36.2414 16.9808 36.2414 15.8094 35.07L15.7444 35.005C14.573 33.8336 14.573 31.9243 15.7444 30.7529L19.0729 27.4245C19.7133 26.784 20.5719 26.4949 21.4129 26.5539L23.7205 24.2464C21.5399 23.2136 18.8486 23.5973 17.0458 25.3972L13.7173 28.7256C11.4276 31.0154 11.4276 34.7426 13.7173 37.035L13.7823 37.1C16.0721 39.3898 19.7993 39.3898 22.0917 37.1L25.4202 33.7716C27.2231 31.9687 27.6067 29.2774 26.571 27.0968L24.2637 29.4015Z" fill="white"/>
<path d="M25.7303 16.1522L25.4764 15.2077L23.2751 15.7243L23.5703 16.7983L25.7303 16.1522Z" fill="white"/>
<path d="M26.3173 13.349L24.78 11.7113L23.9861 12.505L25.6238 14.0425L26.3173 13.349Z" fill="white"/>
<path d="M24.4288 23.538L26.7364 21.2304C26.6774 20.3923 26.9666 19.5307 27.6069 18.8903L28.8109 17.6864L26.7218 15.7211L25.5799 16.863C23.7795 18.6631 23.3961 21.3544 24.4288 23.5377V23.538Z" fill="white"/>
<path d="M37.2827 13.5968L37.2177 13.5318C34.9279 11.242 31.2007 11.242 28.9083 13.5318L27.9936 14.4465L29.9589 16.5356L30.9356 15.5589C32.107 14.3874 34.0163 14.3874 35.1877 15.5589L35.2527 15.6238C36.4241 16.7952 36.4241 18.7045 35.2527 19.8759L31.9243 23.2049C31.2838 23.8453 30.4252 24.1344 29.5842 24.0754L27.2766 26.383C29.4572 27.4158 32.1485 27.0321 33.9513 25.2322L37.2798 21.9037C39.5727 19.6135 39.5727 15.8868 37.2828 13.5966L37.2827 13.5968Z" fill="white"/>
<path d="M29.0735 11.2949L27.9963 11L27.4829 13.2012L28.4271 13.4549L29.0735 11.2949Z" fill="white"/>
</svg>
