<svg width="35" height="33" viewBox="0 0 35 33" fill="none" xmlns="http://www.w3.org/2000/svg">
<g id="Alloy Logo" clip-path="url(#clip0_2468_7742)">
<path id="Vector" d="M22.9765 10.7918L29.874 4.125H12.803C8.08905 4.125 4.26758 7.81865 4.26758 12.375C4.26758 14.8989 5.44018 17.1582 7.28756 18.6715L11.0617 22.3195L22.9824 10.7975L22.9765 10.7918Z" fill="url(#paint0_linear_2468_7742)"/>
<path id="Vector_2" d="M27.4378 26.442C30.7209 23.2687 30.7752 18.0712 27.4921 14.8978L23.1038 10.6562L11.1058 22.2529L11.1105 22.2574L4.26758 28.8714H21.3385C22.2838 28.8714 23.1932 28.7228 24.0431 28.4487C25.2872 28.0606 26.4562 27.3908 27.4378 26.442Z" fill="url(#paint1_linear_2468_7742)"/>
<path id="Vector_3" d="M11.3874 10.5939C8.85068 14.4089 10.0474 20.2208 10.9871 22.1889L29.8753 4.125C21.9821 5.48778 14.5708 5.80658 11.3874 10.5939Z" fill="url(#paint2_linear_2468_7742)"/>
<path id="Vector_4" d="M21.6712 20.863C24.3648 17.1499 23.9764 12.6242 23.1194 10.6211L4.26758 28.872C12.2111 27.8176 18.9774 24.5763 21.6712 20.863Z" fill="url(#paint3_linear_2468_7742)"/>
</g>
<defs>
<linearGradient id="paint0_linear_2468_7742" x1="14.0834" y1="22.275" x2="19.3631" y2="0.625039" gradientUnits="userSpaceOnUse">
<stop stop-color="#00CCD9"/>
<stop offset="1" stop-color="#006379"/>
</linearGradient>
<linearGradient id="paint1_linear_2468_7742" x1="22.7611" y1="10.9964" x2="11.0194" y2="32.5497" gradientUnits="userSpaceOnUse">
<stop stop-color="#FFD482"/>
<stop offset="1" stop-color="#F34200"/>
</linearGradient>
<linearGradient id="paint2_linear_2468_7742" x1="28.9135" y1="2.40891" x2="11.0206" y2="18.0875" gradientUnits="userSpaceOnUse">
<stop stop-color="#08DDEB"/>
<stop offset="1" stop-color="#51F5FF" stop-opacity="0"/>
</linearGradient>
<linearGradient id="paint3_linear_2468_7742" x1="5.05064" y1="30.6476" x2="23.5892" y2="15.6868" gradientUnits="userSpaceOnUse">
<stop stop-color="#FFDB5A"/>
<stop offset="1" stop-color="#DFFF17" stop-opacity="0"/>
</linearGradient>
<clipPath id="clip0_2468_7742">
<rect width="35" height="33" fill="white"/>
</clipPath>
</defs>
</svg>
