<svg width="15" height="15" viewBox="0 0 15 15" fill="none" xmlns="http://www.w3.org/2000/svg">
<g clip-path="url(#clip0_1635_37510)">
<path d="M13.6176 14.527C14.391 14.527 14.7426 13.9645 14.391 13.2848L8.13318 0.980102C7.78162 0.300415 7.21912 0.300415 6.86755 0.980102L0.609739 13.2848C0.258177 13.9645 0.609741 14.527 1.38318 14.527H13.6176Z" fill="#5551F7"/>
<path d="M8.48425 5.52698L7.828 9.86291C7.75769 10.2848 7.21863 10.2848 7.14832 9.86291L6.5155 5.52698C6.39832 3.83948 8.60144 3.83948 8.48425 5.52698Z" fill="white"/>
<path d="M7.5 12.6051C6.95634 12.6051 6.51562 12.1644 6.51562 11.6207C6.51562 11.0771 6.95634 10.6364 7.5 10.6364C8.04366 10.6364 8.48438 11.0771 8.48438 11.6207C8.48438 12.1644 8.04366 12.6051 7.5 12.6051Z" fill="white"/>
</g>
<defs>
<clipPath id="clip0_1635_37510">
<rect width="15" height="15" fill="white" transform="matrix(-1 0 0 1 15 -0.00427246)"/>
</clipPath>
</defs>
</svg>
