<svg width="14" height="14" viewBox="0 0 14 14" fill="none" xmlns="http://www.w3.org/2000/svg">
<path fill-rule="evenodd" clip-rule="evenodd" d="M7 14C10.866 14 14 10.866 14 7C14 3.13401 10.866 0 7 0C3.13401 0 0 3.13401 0 7C0 10.866 3.13401 14 7 14ZM6.26107 4.61478C6.45954 4.79068 6.70382 4.87863 6.99389 4.87863C7.28397 4.87863 7.52443 4.79068 7.71527 4.61478C7.91374 4.43184 8.01298 4.20668 8.01298 3.93931C8.01298 3.67194 7.91374 3.45031 7.71527 3.27441C7.52443 3.09147 7.28397 3 6.99389 3C6.70382 3 6.45954 3.09147 6.26107 3.27441C6.07023 3.45031 5.97481 3.67194 5.97481 3.93931C5.97481 4.20668 6.07023 4.43184 6.26107 4.61478ZM5.8374 10.905C5.92901 10.9683 6.04733 11 6.19237 11H8.19618C8.34885 11 8.47099 10.9683 8.5626 10.905C8.6542 10.8347 8.7 10.7291 8.7 10.5884V10.1768C8.7 10.0361 8.6542 9.93404 8.5626 9.87071C8.47099 9.80035 8.34885 9.76517 8.19618 9.76517H7.99008V6.20844C7.99008 6.06772 7.94046 5.95163 7.84122 5.86016C7.74198 5.76869 7.61603 5.72296 7.46336 5.72296H6.19237C5.86412 5.72296 5.7 5.86016 5.7 6.13456V6.54617C5.7 6.6869 5.7458 6.79244 5.8374 6.8628C5.92901 6.92612 6.04733 6.95778 6.19237 6.95778H6.40992V9.76517H6.19237C6.04733 9.76517 5.92901 9.80035 5.8374 9.87071C5.7458 9.93404 5.7 10.0361 5.7 10.1768V10.5884C5.7 10.7291 5.7458 10.8347 5.8374 10.905Z" fill="#154DAB"/>
</svg>
