<svg width="92" height="121" viewBox="0 0 92 121" fill="none" xmlns="http://www.w3.org/2000/svg">
<g opacity="0.8">
<path d="M90.8449 1.15088H1.15479V66.9629H90.8449V1.15088Z" fill="white"/>
<path d="M91.15 1.15453C91.1501 1.11442 91.1423 1.07473 91.1269 1.03774C91.1116 1.00075 91.0891 0.967167 91.0607 0.938898V0.938897C91.0324 0.910627 90.9987 0.88828 90.9618 0.873057C90.9248 0.857827 90.8853 0.85 90.8453 0.85H1.15517C1.07457 0.85 0.997066 0.881781 0.939756 0.938688C0.88241 0.995631 0.85 1.07309 0.85 1.15408L0.849999 66.9637L0.850001 66.9642C0.850256 67.045 0.88278 67.1222 0.940089 67.1789L0.940103 67.179C0.997382 67.2356 1.07474 67.2673 1.15517 67.2673H90.8453C90.9258 67.2673 91.0032 67.2356 91.0604 67.1788C91.1176 67.1219 91.15 67.0446 91.15 66.9637V1.15453ZM91.15 1.15453L91 1.15408M91.15 1.15453V1.15408H91M91 1.15408V66.9637C91 67.0044 90.9837 67.0435 90.9547 67.0723C90.9257 67.1011 90.8863 67.1173 90.8453 67.1173H1.15517C1.1141 67.1173 1.0747 67.1011 1.04562 67.0723L1 1.15408C1 1.11321 1.01635 1.07402 1.04545 1.04513C1.07455 1.01623 1.11401 1 1.15517 1H90.8453C90.8657 1 90.8858 1.00399 90.9046 1.01174C90.9234 1.01949 90.9405 1.03084 90.9549 1.04516C90.9692 1.05947 90.9806 1.07646 90.9884 1.09515C90.9961 1.11384 91.0001 1.13387 91 1.15408ZM90.5401 1.45525V66.6596H1.45985V1.45525H90.5401Z" fill="#1C1C1C" stroke="#1C1C1C" stroke-width="0.3"/>
<path d="M86.9543 57.6282H6.68359C6.644 57.626 6.60677 57.6088 6.57953 57.5802C6.55229 57.5516 6.53711 57.5138 6.53711 57.4744C6.53711 57.435 6.55229 57.3971 6.57953 57.3685C6.60677 57.3399 6.644 57.3228 6.68359 57.3206H86.9543C86.9754 57.3194 86.9965 57.3225 87.0163 57.3297C87.0361 57.3369 87.0543 57.348 87.0696 57.3624C87.0849 57.3768 87.0972 57.3942 87.1055 57.4134C87.1139 57.4327 87.1182 57.4534 87.1182 57.4744C87.1182 57.4953 87.1139 57.5161 87.1055 57.5353C87.0972 57.5546 87.0849 57.5719 87.0696 57.5863C87.0543 57.6007 87.0361 57.6119 87.0163 57.6191C86.9965 57.6263 86.9754 57.6294 86.9543 57.6282Z" fill="#1C1C1C"/>
<path d="M19.3118 57.0332H11.2572C11.1766 57.0332 11.0991 57.0014 11.0418 56.9445C10.9845 56.8875 10.9521 56.8101 10.9521 56.7291V23.1126C10.9521 23.0725 10.96 23.0328 10.9754 22.9959C10.9908 22.9589 11.0134 22.9254 11.0418 22.8972C11.0702 22.869 11.1038 22.8467 11.1408 22.8315C11.1777 22.8163 11.2173 22.8085 11.2572 22.8085H19.3118C19.3517 22.8085 19.3913 22.8163 19.4282 22.8316C19.4652 22.8468 19.4988 22.8691 19.5272 22.8974C19.5555 22.9256 19.578 22.9592 19.5934 22.9962C19.6087 23.0333 19.6166 23.073 19.6164 23.113M19.3118 57.0332L19.6164 23.113M19.3118 57.0332C19.3517 57.0332 19.3913 57.0253 19.4282 57.0101C19.4652 56.9949 19.4988 56.9725 19.5272 56.9443C19.5555 56.916 19.578 56.8825 19.5934 56.8454C19.6087 56.8084 19.6166 56.7687 19.6164 56.7286M19.3118 57.0332L19.6164 56.7286M19.6164 23.113V56.7286M19.6164 23.113V56.7286M19.0066 23.4152V56.4255H11.5619V23.4152H19.0066Z" fill="#1C1C1C" stroke="#1C1C1C" stroke-width="0.3"/>
<path d="M28.868 15.2495H20.8135V56.7292H28.868V15.2495Z" fill="white"/>
<path d="M29.0103 56.7879L29.1487 56.8457C29.1333 56.8827 29.1107 56.9162 29.0824 56.9444C29.054 56.9726 29.0203 56.9949 28.9834 57.01C28.9464 57.0253 28.9069 57.0331 28.867 57.0331H20.8129C20.7323 57.0331 20.6548 57.0013 20.5975 56.9444C20.5401 56.8874 20.5077 56.81 20.5077 56.729V15.2493C20.5077 15.1683 20.5401 15.0908 20.5975 15.0339C20.6548 14.977 20.7323 14.9452 20.8129 14.9452H28.867C28.9069 14.9452 28.9464 14.953 28.9834 14.9682C29.0203 14.9834 29.054 15.0057 29.0824 15.0339M29.0103 56.7879L29.1487 56.8457C29.1642 56.8087 29.1721 56.7691 29.1721 56.729V15.2493C29.1721 15.2092 29.1642 15.1696 29.1487 15.1326C29.1333 15.0956 29.1107 15.0621 29.0824 15.0339M29.0103 56.7879C29.0181 56.7692 29.0221 56.7492 29.0221 56.729V15.2493C29.0221 15.2291 29.0181 15.209 29.0103 15.1903C29.0025 15.1716 28.9911 15.1546 28.9767 15.1403V56.8379C28.9911 56.8236 29.0025 56.8066 29.0103 56.7879ZM29.0824 15.0339L28.9767 15.1403L29.0824 15.0339C29.0824 15.0339 29.0824 15.0339 29.0824 15.0339ZM28.5623 15.5524V56.4254H21.1176V15.5524H28.5623Z" fill="#1C1C1C" stroke="#1C1C1C" stroke-width="0.3"/>
<path d="M36.2074 56.7294C36.2073 56.7694 36.2152 56.809 36.2305 56.8459C36.2458 56.8829 36.2683 56.9165 36.2967 56.9448L36.2967 56.9448L44.7213 56.7296H44.8713V56.7291V37.4807C44.8713 37.3999 44.839 37.3225 44.7817 37.2657C44.7245 37.2089 44.6471 37.1771 44.5667 37.1771H36.5121C36.4316 37.1771 36.3543 37.2089 36.297 37.2657C36.2398 37.3225 36.2074 37.3999 36.2074 37.4807V56.7294ZM36.2074 56.7294C36.2074 56.7293 36.2074 56.7292 36.2074 56.7291L36.3574 56.7296H36.2074V56.7294ZM44.5667 57.0337H36.5121C36.4722 57.0337 36.4326 57.0258 36.3956 57.0106C36.3956 57.0106 36.3956 57.0106 36.3956 57.0106L44.5667 57.0337ZM44.5667 57.0337C44.6066 57.0337 44.6462 57.0258 44.6831 57.0106L44.5667 57.0337ZM44.2615 56.426H36.8173V37.7848H44.2615V56.426Z" fill="#1C1C1C" stroke="#1C1C1C" stroke-width="0.3" stroke-linejoin="round"/>
<path d="M54.524 31C54.524 30.7239 54.3001 30.5 54.024 30.5H47.396C47.1199 30.5 46.896 30.7239 46.896 31V56.5556C46.896 56.8317 47.1199 57.0556 47.396 57.0556H54.024C54.3001 57.0556 54.524 56.8317 54.524 56.5556V31Z" fill="white" stroke="#1C1C1C" stroke-linejoin="round"/>
<mask id="path-9-outside-1_1358_287056" maskUnits="userSpaceOnUse" x="60.6128" y="14.0952" width="10" height="44" fill="black">
<rect fill="white" x="60.6128" y="14.0952" width="10" height="44"/>
<path d="M69.822 56.8831H61.7675C61.7471 56.8831 61.727 56.8791 61.7082 56.8713C61.6894 56.8636 61.6723 56.8522 61.6579 56.8379C61.6436 56.8236 61.6322 56.8066 61.6244 56.7879C61.6167 56.7692 61.6127 56.7492 61.6128 56.729V15.2493C61.6127 15.2291 61.6167 15.2091 61.6244 15.1904C61.6322 15.1717 61.6436 15.1547 61.6579 15.1404C61.6723 15.1261 61.6894 15.1147 61.7082 15.107C61.727 15.0992 61.7471 15.0952 61.7675 15.0952H69.822C69.8424 15.0952 69.8625 15.0992 69.8813 15.107C69.9001 15.1147 69.9172 15.1261 69.9316 15.1404C69.9459 15.1547 69.9573 15.1717 69.9651 15.1904C69.9728 15.2091 69.9768 15.2291 69.9767 15.2493V56.729C69.9768 56.7492 69.9728 56.7692 69.9651 56.7879C69.9573 56.8066 69.9459 56.8236 69.9316 56.8379C69.9172 56.8522 69.9001 56.8636 69.8813 56.8713C69.8625 56.8791 69.8424 56.8831 69.822 56.8831ZM61.9226 56.5754H69.6669V15.4024H61.9226V56.5754Z"/>
</mask>
<path d="M69.822 56.8831H61.7675C61.7471 56.8831 61.727 56.8791 61.7082 56.8713C61.6894 56.8636 61.6723 56.8522 61.6579 56.8379C61.6436 56.8236 61.6322 56.8066 61.6244 56.7879C61.6167 56.7692 61.6127 56.7492 61.6128 56.729V15.2493C61.6127 15.2291 61.6167 15.2091 61.6244 15.1904C61.6322 15.1717 61.6436 15.1547 61.6579 15.1404C61.6723 15.1261 61.6894 15.1147 61.7082 15.107C61.727 15.0992 61.7471 15.0952 61.7675 15.0952H69.822C69.8424 15.0952 69.8625 15.0992 69.8813 15.107C69.9001 15.1147 69.9172 15.1261 69.9316 15.1404C69.9459 15.1547 69.9573 15.1717 69.9651 15.1904C69.9728 15.2091 69.9768 15.2291 69.9767 15.2493V56.729C69.9768 56.7492 69.9728 56.7692 69.9651 56.7879C69.9573 56.8066 69.9459 56.8236 69.9316 56.8379C69.9172 56.8522 69.9001 56.8636 69.8813 56.8713C69.8625 56.8791 69.8424 56.8831 69.822 56.8831ZM61.9226 56.5754H69.6669V15.4024H61.9226V56.5754Z" fill="#1C1C1C"/>
<path d="M61.7675 56.8831V56.4831H61.7675L61.7675 56.8831ZM61.6128 56.729L62.0128 56.7302V56.729H61.6128ZM61.6128 15.2493H62.0128L62.0128 15.248L61.6128 15.2493ZM61.7675 15.0952L61.7675 15.4952H61.7675V15.0952ZM69.822 15.0952V15.4952H69.822L69.822 15.0952ZM69.9767 15.2493L69.5767 15.248V15.2493H69.9767ZM69.9767 56.729H69.5767L69.5767 56.7302L69.9767 56.729ZM61.9226 56.5754H61.5226V56.9754H61.9226V56.5754ZM69.6669 56.5754V56.9754H70.0669V56.5754H69.6669ZM69.6669 15.4024H70.0669V15.0024H69.6669V15.4024ZM61.9226 15.4024V15.0024H61.5226V15.4024H61.9226ZM69.822 56.4831H61.7675V57.2831H69.822V56.4831ZM61.7675 56.4831C61.7993 56.4831 61.8309 56.4893 61.8606 56.5015L61.5557 57.2411C61.623 57.2689 61.695 57.2831 61.7675 57.2831L61.7675 56.4831ZM61.8606 56.5015C61.8903 56.5137 61.9173 56.5317 61.9402 56.5545L61.3756 57.1213C61.4272 57.1727 61.4884 57.2134 61.5557 57.2411L61.8606 56.5015ZM61.9402 56.5545C61.9631 56.5773 61.9814 56.6046 61.994 56.6348L61.2549 56.941C61.2829 57.0086 61.324 57.0699 61.3756 57.1213L61.9402 56.5545ZM61.994 56.6348C62.0065 56.665 62.0129 56.6975 62.0128 56.7302L61.2128 56.7277C61.2126 56.8009 61.2269 56.8734 61.2549 56.941L61.994 56.6348ZM62.0128 56.729V15.2493H61.2128V56.729H62.0128ZM62.0128 15.248C62.0129 15.2808 62.0065 15.3133 61.994 15.3435L61.2549 15.0372C61.2269 15.1048 61.2126 15.1773 61.2128 15.2506L62.0128 15.248ZM61.994 15.3435C61.9814 15.3737 61.9631 15.401 61.9402 15.4238L61.3756 14.857C61.324 14.9084 61.2829 14.9696 61.2549 15.0372L61.994 15.3435ZM61.9402 15.4238C61.9173 15.4466 61.8902 15.4646 61.8606 15.4768L61.5557 14.7371C61.4885 14.7648 61.4273 14.8055 61.3756 14.857L61.9402 15.4238ZM61.8606 15.4768C61.831 15.489 61.7993 15.4952 61.7675 15.4952L61.7675 14.6952C61.6949 14.6952 61.6229 14.7094 61.5557 14.7371L61.8606 15.4768ZM61.7675 15.4952H69.822V14.6952H61.7675V15.4952ZM69.822 15.4952C69.7901 15.4952 69.7585 15.489 69.7289 15.4768L70.0338 14.7371C69.9666 14.7094 69.8946 14.6952 69.822 14.6952L69.822 15.4952ZM69.7289 15.4768C69.6993 15.4646 69.6722 15.4466 69.6493 15.4238L70.2139 14.857C70.1622 14.8055 70.101 14.7648 70.0338 14.7371L69.7289 15.4768ZM69.6493 15.4238C69.6264 15.401 69.6081 15.3737 69.5955 15.3435L70.3346 15.0372C70.3066 14.9696 70.2655 14.9084 70.2139 14.857L69.6493 15.4238ZM69.5955 15.3435C69.583 15.3133 69.5766 15.2808 69.5767 15.248L70.3767 15.2506C70.3769 15.1773 70.3626 15.1048 70.3346 15.0372L69.5955 15.3435ZM69.5767 15.2493V56.729H70.3767V15.2493H69.5767ZM69.5767 56.7302C69.5766 56.6975 69.583 56.665 69.5955 56.6348L70.3346 56.941C70.3626 56.8734 70.3769 56.8009 70.3767 56.7277L69.5767 56.7302ZM69.5955 56.6348C69.6081 56.6046 69.6264 56.5773 69.6493 56.5545L70.2139 57.1213C70.2655 57.0699 70.3066 57.0086 70.3346 56.941L69.5955 56.6348ZM69.6493 56.5545C69.6721 56.5317 69.6992 56.5137 69.7289 56.5015L70.0338 57.2411C70.1011 57.2134 70.1623 57.1727 70.2139 57.1213L69.6493 56.5545ZM69.7289 56.5015C69.7586 56.4893 69.7902 56.4831 69.822 56.4831L69.822 57.2831C69.8946 57.2831 69.9665 57.2689 70.0338 57.2411L69.7289 56.5015ZM61.9226 56.9754H69.6669V56.1754H61.9226V56.9754ZM70.0669 56.5754V15.4024H69.2669V56.5754H70.0669ZM69.6669 15.0024H61.9226V15.8024H69.6669V15.0024ZM61.5226 15.4024V56.5754H62.3226V15.4024H61.5226Z" fill="#1C1C1C" mask="url(#path-9-outside-1_1358_287056)"/>
<path d="M81.0359 7.66699C81.0359 7.39085 80.812 7.16699 80.5359 7.16699H72.8032C72.5271 7.16699 72.3032 7.39085 72.3032 7.66699V56.556C72.3032 56.8321 72.5271 57.056 72.8032 57.056H80.5359C80.812 57.056 81.0359 56.8321 81.0359 56.556V7.66699Z" fill="white" stroke="#1C1C1C" stroke-linejoin="round"/>
<path d="M28.5946 59.2552H11.0525C11.0314 59.2563 11.0104 59.2532 10.9905 59.246C10.9707 59.2388 10.9526 59.2277 10.9372 59.2133C10.9219 59.1989 10.9097 59.1815 10.9013 59.1623C10.893 59.143 10.8887 59.1223 10.8887 59.1013C10.8887 59.0804 10.893 59.0596 10.9013 59.0404C10.9097 59.0211 10.9219 59.0038 10.9372 58.9894C10.9526 58.975 10.9707 58.9638 10.9905 58.9566C11.0104 58.9494 11.0314 58.9463 11.0525 58.9475H28.5946C28.6157 58.9463 28.6368 58.9494 28.6566 58.9566C28.6764 58.9638 28.6946 58.975 28.7099 58.9894C28.7252 59.0038 28.7375 59.0211 28.7458 59.0404C28.7542 59.0596 28.7585 59.0804 28.7585 59.1013C28.7585 59.1223 28.7542 59.143 28.7458 59.1623C28.7375 59.1815 28.7252 59.1989 28.7099 59.2133C28.6946 59.2277 28.6764 59.2388 28.6566 59.246C28.6368 59.2532 28.6157 59.2563 28.5946 59.2552Z" fill="#1C1C1C"/>
<path d="M28.5946 60.4754H19.3118C19.2907 60.4766 19.2696 60.4735 19.2498 60.4663C19.23 60.4591 19.2118 60.4479 19.1965 60.4335C19.1812 60.4191 19.169 60.4018 19.1606 60.3825C19.1523 60.3633 19.1479 60.3425 19.1479 60.3216C19.1479 60.3006 19.1523 60.2799 19.1606 60.2606C19.169 60.2414 19.1812 60.224 19.1965 60.2096C19.2118 60.1952 19.23 60.1841 19.2498 60.1769C19.2696 60.1697 19.2907 60.1665 19.3118 60.1677H28.5946C28.6156 60.1665 28.6367 60.1697 28.6565 60.1769C28.6764 60.1841 28.6945 60.1952 28.7098 60.2096C28.7252 60.224 28.7374 60.2414 28.7457 60.2606C28.7541 60.2799 28.7584 60.3006 28.7584 60.3216C28.7584 60.3425 28.7541 60.3633 28.7457 60.3825C28.7374 60.4018 28.7252 60.4191 28.7098 60.4335C28.6945 60.4479 28.6764 60.4591 28.6565 60.4663C28.6367 60.4735 28.6156 60.4766 28.5946 60.4754Z" fill="#1C1C1C"/>
<path d="M53.7132 58.9161H36.5121C36.4709 58.9161 36.4315 58.8998 36.4024 58.8709C36.3733 58.842 36.3569 58.8028 36.3569 58.762C36.3569 58.7211 36.3733 58.6819 36.4024 58.653C36.4315 58.6241 36.4709 58.6079 36.5121 58.6079H53.7132C53.7544 58.6079 53.7938 58.6241 53.8229 58.653C53.852 58.6819 53.8684 58.7211 53.8684 58.762C53.8684 58.8028 53.852 58.842 53.8229 58.8709C53.7938 58.8998 53.7544 58.9161 53.7132 58.9161Z" fill="#1C1C1C"/>
<path d="M53.7135 60.1358H47.7749C47.7353 60.1336 47.6981 60.1164 47.6708 60.0878C47.6436 60.0592 47.6284 60.0213 47.6284 59.982C47.6284 59.9426 47.6436 59.9047 47.6708 59.8761C47.6981 59.8475 47.7353 59.8303 47.7749 59.8281H53.7135C53.7531 59.8303 53.7904 59.8475 53.8176 59.8761C53.8449 59.9047 53.86 59.9426 53.86 59.982C53.86 60.0213 53.8449 60.0592 53.8176 60.0878C53.7904 60.1164 53.7531 60.1336 53.7135 60.1358Z" fill="#1C1C1C"/>
<path d="M79.378 58.9161H62.2455C62.2043 58.9161 62.1649 58.8998 62.1358 58.8709C62.1067 58.842 62.0903 58.8028 62.0903 58.762C62.0903 58.7211 62.1067 58.6819 62.1358 58.653C62.1649 58.6241 62.2043 58.6079 62.2455 58.6079H79.378C79.4192 58.6079 79.4586 58.6241 79.4877 58.653C79.5168 58.6819 79.5332 58.7211 79.5332 58.762C79.5332 58.8028 79.5168 58.842 79.4877 58.8709C79.4586 58.8998 79.4192 58.9161 79.378 58.9161Z" fill="#1C1C1C"/>
<path d="M70.7772 60.4754H66.4773C66.4563 60.4766 66.4352 60.4735 66.4153 60.4663C66.3955 60.4591 66.3774 60.4479 66.362 60.4335C66.3467 60.4191 66.3345 60.4018 66.3261 60.3825C66.3178 60.3633 66.3135 60.3425 66.3135 60.3216C66.3135 60.3006 66.3178 60.2799 66.3261 60.2606C66.3345 60.2414 66.3467 60.224 66.362 60.2096C66.3774 60.1952 66.3955 60.1841 66.4153 60.1769C66.4352 60.1697 66.4563 60.1665 66.4773 60.1677H70.7772C70.7983 60.1665 70.8194 60.1697 70.8392 60.1769C70.8591 60.1841 70.8772 60.1952 70.8925 60.2096C70.9079 60.224 70.9201 60.2414 70.9284 60.2606C70.9368 60.2799 70.9411 60.3006 70.9411 60.3216C70.9411 60.3425 70.9368 60.3633 70.9284 60.3825C70.9201 60.4018 70.9079 60.4191 70.8925 60.4335C70.8772 60.4479 70.8591 60.4591 70.8392 60.4663C70.8194 60.4735 70.7983 60.4766 70.7772 60.4754Z" fill="#1C1C1C"/>
<path d="M79.378 60.4754H72.9617C72.9406 60.4766 72.9195 60.4735 72.8997 60.4663C72.8799 60.4591 72.8618 60.4479 72.8464 60.4335C72.8311 60.4191 72.8189 60.4018 72.8105 60.3825C72.8022 60.3633 72.7979 60.3425 72.7979 60.3216C72.7979 60.3006 72.8022 60.2799 72.8105 60.2606C72.8189 60.2414 72.8311 60.224 72.8464 60.2096C72.8618 60.1952 72.8799 60.1841 72.8997 60.1769C72.9195 60.1697 72.9406 60.1665 72.9617 60.1677H79.378C79.4176 60.1699 79.4548 60.1871 79.4821 60.2157C79.5093 60.2443 79.5245 60.2822 79.5245 60.3216C79.5245 60.3609 79.5093 60.3988 79.4821 60.4274C79.4548 60.456 79.4176 60.4732 79.378 60.4754Z" fill="#1C1C1C"/>
<path d="M20.5528 7.47271H16.1177C16.0781 7.4705 16.0409 7.45334 16.0136 7.42473C15.9864 7.39612 15.9712 7.35824 15.9712 7.31887C15.9712 7.2795 15.9864 7.24163 16.0136 7.21302C16.0409 7.18441 16.0781 7.16724 16.1177 7.16504H20.5528C20.5924 7.16724 20.6296 7.18441 20.6569 7.21302C20.6841 7.24163 20.6993 7.2795 20.6993 7.31887C20.6993 7.35824 20.6841 7.39612 20.6569 7.42473C20.6296 7.45334 20.5924 7.4705 20.5528 7.47271Z" fill="#1C1C1C"/>
<path d="M19.6328 8.50226L17.8403 12.1117L19.0646 12.7111L20.8571 9.10214C21.1178 8.5776 21.0551 8.01781 20.717 7.85214C20.3789 7.68648 19.8935 7.97772 19.6328 8.50226Z" fill="white"/>
<path d="M19.0649 12.865C19.0411 12.8649 19.0176 12.8595 18.9963 12.849L17.772 12.2491C17.7537 12.2403 17.7373 12.2279 17.7239 12.2127C17.7105 12.1976 17.7002 12.1799 17.6937 12.1608C17.6806 12.1221 17.6834 12.08 17.7015 12.0434L19.4944 8.43444C19.7969 7.82442 20.3641 7.50805 20.7853 7.71429C21.2066 7.92053 21.2995 8.56002 20.9964 9.17004L19.2035 12.779C19.1908 12.8048 19.1711 12.8265 19.1466 12.8417C19.1221 12.8569 19.0938 12.865 19.0649 12.865ZM18.0478 12.0415L18.9968 12.5042L20.7211 9.03287C20.9395 8.59286 20.9074 8.11518 20.6511 7.98912C20.3947 7.86306 19.993 8.12919 19.7755 8.56871L18.0478 12.0415Z" fill="#1C1C1C"/>
<path d="M16.3412 9.53741L16.475 9.5007C16.6093 9.46354 16.751 9.46204 16.886 9.49636L17.0465 9.53693C17.1669 9.56743 17.2785 9.6253 17.3724 9.70598L17.4508 9.77311L17.64 9.70018C17.7445 9.65961 17.8591 9.65269 17.9678 9.68038L18.1137 9.71757C18.2198 9.74433 18.3152 9.80259 18.3871 9.88458C18.459 9.96657 18.5039 10.0684 18.516 10.1764C18.6202 10.1004 18.7477 10.0626 18.8768 10.0694C19.0059 10.0762 19.1287 10.1272 19.2242 10.2138C19.3197 10.3003 19.3821 10.417 19.4007 10.544C19.4193 10.6711 19.3931 10.8006 19.3264 10.9106L18.999 11.4612L19.7515 11.1598C19.9947 11.0473 20.4398 11.1115 20.3352 11.353L19.6138 12.4412C19.5047 12.607 19.3716 12.7561 19.2189 12.8836L18.2898 13.6564C18.1882 13.7406 18.1208 13.8585 18.1001 13.9882L17.5242 17.5667L14.6699 17.1137L14.6962 12.9599C14.6986 12.6057 14.7512 12.2535 14.8523 11.9138L15.2638 10.5377C15.3094 10.3849 15.3835 10.2421 15.4822 10.1165L15.8388 9.66444C15.8972 9.59186 15.9779 9.54019 16.0686 9.51726C16.1592 9.49434 16.255 9.50141 16.3412 9.53741Z" fill="white"/>
<path d="M17.5251 17.7207C17.5003 17.7207 14.6455 17.2662 14.6455 17.2662C14.6089 17.2603 14.5757 17.2417 14.5518 17.2136C14.5279 17.1855 14.5149 17.1499 14.5151 17.1131L14.5419 12.9593C14.5447 12.5926 14.5994 12.2281 14.7044 11.8764L15.1154 10.4999C15.1664 10.3286 15.2497 10.1684 15.361 10.028L15.7171 9.57593C15.79 9.48402 15.889 9.41599 16.0013 9.38068C16.1137 9.34536 16.2341 9.3444 16.347 9.3779L16.434 9.35424C16.5942 9.31023 16.7632 9.3084 16.9244 9.34893L17.0849 9.3895C17.2286 9.42592 17.3618 9.49504 17.474 9.59139C17.5125 9.5846 17.55 9.57342 17.5859 9.55806C17.7203 9.50581 17.8678 9.49685 18.0076 9.53246L18.156 9.56965C18.2572 9.59551 18.3514 9.64367 18.4314 9.71056C18.5113 9.77745 18.5752 9.86135 18.6181 9.95605C18.7409 9.91511 18.8725 9.90795 18.9991 9.93534C19.1257 9.96272 19.2424 10.0236 19.337 10.1116C19.4554 10.2214 19.5323 10.3682 19.5552 10.5274C19.578 10.6867 19.5453 10.849 19.4625 10.9872L19.3652 11.1481L19.6901 11.0177C19.9041 10.9211 20.2534 10.9211 20.4163 11.0781C20.4601 11.1206 20.4893 11.1757 20.4997 11.2356C20.5102 11.2955 20.5015 11.3571 20.4747 11.4118C20.4625 11.4345 19.7451 12.5256 19.7451 12.5256C19.6279 12.7039 19.4848 12.8641 19.3204 13.0009L18.3909 13.7737C18.3182 13.8344 18.27 13.9191 18.2552 14.0123L17.6793 17.5908C17.6736 17.6272 17.6548 17.6604 17.6265 17.6842C17.5982 17.7081 17.5622 17.721 17.5251 17.7207ZM14.826 16.9832L17.3962 17.3908L17.9478 13.9644C17.9746 13.7981 18.061 13.6471 18.191 13.5389L19.12 12.7637C19.2601 12.6471 19.3823 12.511 19.4829 12.3594L20.1867 11.2915C20.1293 11.2577 19.9435 11.2432 19.8166 11.3002L19.0558 11.6055C19.0258 11.6176 18.9927 11.62 18.9613 11.6124C18.9298 11.6049 18.9015 11.5877 18.8804 11.5633C18.8593 11.5389 18.8464 11.5086 18.8436 11.4765C18.8408 11.4445 18.8481 11.4124 18.8647 11.3848L19.192 10.8337C19.2389 10.7549 19.2573 10.6627 19.2441 10.5722C19.231 10.4816 19.1871 10.3983 19.1197 10.3359C19.0524 10.2736 18.9656 10.2359 18.8737 10.2292C18.7819 10.2225 18.6905 10.2471 18.6146 10.299C18.5918 10.3164 18.5647 10.3274 18.5361 10.3308C18.5076 10.3343 18.4786 10.3302 18.4522 10.3188C18.4279 10.3076 18.4068 10.2904 18.3912 10.2689C18.3755 10.2473 18.3657 10.2221 18.3627 10.1956C18.3539 10.1188 18.3219 10.0465 18.2708 9.98821C18.2197 9.92991 18.152 9.88838 18.0767 9.86911L17.9283 9.83144C17.851 9.812 17.7696 9.81706 17.6953 9.84593L17.5061 9.91886C17.4798 9.92899 17.4513 9.93182 17.4235 9.92705C17.3958 9.92229 17.3698 9.9101 17.3485 9.89181L17.2702 9.82419C17.1941 9.75946 17.1041 9.71287 17.007 9.68799L16.8465 9.64742C16.7376 9.62018 16.6235 9.62151 16.5153 9.65128L16.381 9.68799C16.3479 9.69732 16.3125 9.69511 16.2808 9.68171C16.2253 9.65925 16.164 9.65536 16.1061 9.67061C16.0481 9.68586 15.9968 9.71943 15.9598 9.76623L15.6033 10.2178C15.5165 10.3281 15.4513 10.4536 15.4111 10.5878L15.0001 11.9643C14.9027 12.29 14.8523 12.6278 14.8503 12.9675L14.826 16.9832Z" fill="#1C1C1C"/>
<path d="M46.5456 74.1727L46.8078 74.3659C46.8918 74.4294 46.9896 74.4722 47.0934 74.4909C47.1973 74.5097 47.3041 74.5037 47.4051 74.4736C47.4509 74.4596 47.4953 74.4417 47.5379 74.42L47.8298 74.2751L47.966 74.3017C48.1026 74.3282 48.2439 74.3191 48.376 74.2751L48.5331 74.2225C48.6507 74.1829 48.7574 74.1167 48.8449 74.0293L48.9179 73.9563L49.1124 74.0148C49.2196 74.0471 49.3343 74.0453 49.4403 74.0095L49.5862 73.9612C49.6902 73.9268 49.7811 73.8615 49.8465 73.7742C49.9119 73.6868 49.9487 73.5817 49.952 73.4729C50.0615 73.5394 50.1908 73.5665 50.3181 73.5495C50.4454 73.5325 50.5629 73.4725 50.6509 73.3796C50.7389 73.2867 50.7919 73.1666 50.8011 73.0394C50.8104 72.9122 50.7752 72.7857 50.7016 72.6812L50.3333 72.1567L51.1067 72.3982C51.3553 72.4948 51.7965 72.3982 51.6715 72.1635L50.8703 71.1299C50.7488 70.973 50.6047 70.8347 50.4428 70.7193L49.4568 70.017C49.3494 69.9403 49.2733 69.8279 49.2423 69.7002L48.3935 66.1743L45.582 66.8423L45.9274 70.9796C45.9567 71.3325 46.0362 71.6795 46.1633 72.0104L46.766 73.5772L46.5456 74.1727Z" fill="white"/>
<path d="M47.2168 74.6563C47.0363 74.6555 46.8608 74.5971 46.7162 74.4897L46.4541 74.2965C46.4273 74.2767 46.4076 74.2489 46.398 74.2171C46.3885 74.1853 46.3895 74.1513 46.4011 74.1202L46.5995 73.5817L46.0158 72.0689C45.8833 71.7245 45.8005 71.3632 45.7697 70.9957L45.4243 66.8584C45.4213 66.8217 45.4317 66.7852 45.4534 66.7554C45.4752 66.7257 45.507 66.7046 45.543 66.6961L48.3545 66.0281C48.3945 66.0187 48.4366 66.0254 48.4716 66.0467C48.5067 66.0681 48.5317 66.1024 48.5413 66.1421L49.3901 69.668C49.4124 69.7597 49.4671 69.8404 49.5443 69.8954L50.5302 70.5977C50.7046 70.7219 50.8596 70.8708 50.9904 71.0397L51.791 72.0733C51.8679 72.2114 51.8557 72.3375 51.7721 72.4317C51.6218 72.6017 51.274 72.6287 51.0531 72.5476L50.7185 72.4418L50.826 72.5944C50.9193 72.7261 50.9644 72.8855 50.954 73.0462C50.9436 73.2068 50.8781 73.3591 50.7686 73.4778C50.681 73.5725 50.5692 73.642 50.4452 73.6788C50.3211 73.7156 50.1893 73.7184 50.0638 73.687C50.0285 73.7849 49.9714 73.8737 49.8968 73.9467C49.8222 74.0197 49.7319 74.075 49.6328 74.1086L49.4869 74.1569C49.3502 74.2031 49.2023 74.2055 49.0642 74.1637L48.9591 74.1318C48.8532 74.2396 48.7232 74.3212 48.5797 74.3699L48.4226 74.4221C48.2651 74.4752 48.0964 74.4863 47.9333 74.4544L47.8486 74.438L47.6054 74.5597C47.5551 74.5849 47.5029 74.6061 47.4493 74.623C47.3739 74.6455 47.2955 74.6567 47.2168 74.6563ZM46.7304 74.1173L46.8996 74.2429C46.964 74.2917 47.0391 74.3248 47.1188 74.3394C47.1985 74.354 47.2806 74.3497 47.3583 74.3269C47.396 74.3153 47.4326 74.3004 47.4678 74.2825L47.7596 74.1376C47.7904 74.1221 47.8255 74.1173 47.8593 74.1241L47.996 74.1506C48.1061 74.1718 48.2199 74.1643 48.3263 74.1289L48.4834 74.0763C48.5781 74.0443 48.6642 73.9911 48.7349 73.9207L48.8078 73.8473C48.8277 73.8275 48.8527 73.8134 48.88 73.8066C48.9074 73.7998 48.936 73.8005 48.963 73.8087L49.1576 73.8671C49.234 73.8902 49.3158 73.889 49.3915 73.8637L49.5375 73.8154C49.6113 73.7906 49.6757 73.744 49.7222 73.6819C49.7687 73.6197 49.795 73.545 49.7977 73.4677C49.7987 73.4411 49.8066 73.4153 49.8205 73.3926C49.8345 73.3699 49.8541 73.3512 49.8775 73.3382C49.9007 73.3251 49.9271 73.3181 49.9538 73.3181C49.9806 73.3181 50.0069 73.3251 50.0302 73.3382C50.1108 73.3868 50.2059 73.4063 50.2993 73.3934C50.3927 73.3804 50.4787 73.3359 50.5429 73.2672C50.605 73.2002 50.6421 73.114 50.648 73.023C50.654 72.9321 50.6284 72.8418 50.5755 72.7673L50.2073 72.2428C50.1886 72.2165 50.1787 72.185 50.179 72.1528C50.1793 72.1206 50.1898 72.0894 50.209 72.0634C50.2282 72.0375 50.2551 72.0182 50.286 72.0082C50.3168 71.9983 50.35 71.9982 50.3809 72.0081L51.1543 72.2496C51.2939 72.3017 51.4778 72.2708 51.5322 72.2327L50.7486 71.2213C50.6365 71.0763 50.5034 70.9485 50.3537 70.8421L49.3677 70.1398C49.2298 70.0418 49.1322 69.8975 49.0929 69.7336L48.2791 66.3623L45.7497 66.9637L46.0839 70.9691C46.1121 71.3078 46.1885 71.6409 46.3106 71.9583L46.9128 73.5247C46.9257 73.5596 46.9257 73.5979 46.9128 73.6329L46.7304 74.1173Z" fill="#1C1C1C"/>
<path d="M26.8125 30.0385L27.1102 35.2336L32.65 35.1037L32.3012 30.0356L26.8125 30.0385Z" fill="white"/>
<path d="M27.1098 35.3875C27.0703 35.3873 27.0324 35.3723 27.0037 35.3454C26.975 35.3185 26.9576 35.2817 26.9551 35.2426L26.6574 30.047C26.6563 30.0261 26.6595 30.0052 26.6668 29.9856C26.674 29.9659 26.6852 29.948 26.6997 29.9327C26.7141 29.9175 26.7316 29.9054 26.7509 29.897C26.7702 29.8887 26.7911 29.8844 26.8121 29.8843L32.3008 29.8818C32.3404 29.8818 32.3785 29.8968 32.4072 29.9237C32.436 29.9507 32.4533 29.9875 32.4555 30.0267L32.8043 35.0943C32.8058 35.1151 32.8031 35.1359 32.7962 35.1556C32.7894 35.1753 32.7786 35.1934 32.7645 35.2088C32.7504 35.2242 32.7332 35.2366 32.7142 35.2452C32.6951 35.2539 32.6745 35.2586 32.6535 35.259L27.1137 35.389L27.1098 35.3875ZM26.976 30.1919L27.2562 35.0765L32.4842 34.9538L32.1564 30.1895L26.976 30.1919Z" fill="#1C1C1C"/>
<path d="M26.1499 33.1553V35.6243H33.4349L33.2165 33.1553H26.1499Z" fill="white"/>
<path d="M33.4348 35.7777H26.1498C26.1294 35.7777 26.1093 35.7737 26.0905 35.766C26.0717 35.7582 26.0546 35.7469 26.0403 35.7326C26.0259 35.7182 26.0145 35.7013 26.0068 35.6826C25.999 35.6639 25.9951 35.6439 25.9951 35.6236V33.1551C25.9951 33.1348 25.999 33.1148 26.0068 33.0961C26.0145 33.0774 26.0259 33.0604 26.0403 33.0461C26.0546 33.0318 26.0717 33.0205 26.0905 33.0127C26.1093 33.005 26.1294 33.001 26.1498 33.001H33.2164C33.2553 33.0009 33.2927 33.0154 33.3213 33.0414C33.3499 33.0674 33.3677 33.1031 33.3711 33.1415L33.5885 35.6106C33.5905 35.6318 33.5879 35.6531 33.5811 35.6732C33.5742 35.6934 33.5632 35.7119 33.5487 35.7275C33.5342 35.7432 33.5166 35.7557 33.497 35.7644C33.4774 35.773 33.4563 35.7776 33.4348 35.7777ZM26.305 35.4701H33.2656L33.0749 33.3086H26.305V35.4701Z" fill="#1C1C1C"/>
<path d="M25.045 26.3912C25.1861 27.1316 24.9263 27.8025 24.4647 27.8885C24.0031 27.9745 23.5148 27.4465 23.3742 26.7042C23.2336 25.9618 23.4924 25.2929 23.954 25.2069C24.4156 25.1209 24.9035 25.6512 25.045 26.3912Z" fill="white"/>
<path d="M24.3631 28.0531C23.8543 28.0531 23.3684 27.5054 23.221 26.735C23.1476 26.3486 23.1724 25.9666 23.2925 25.657C23.4219 25.3228 23.6466 25.1098 23.9249 25.0576C24.2031 25.0054 24.4901 25.1218 24.7338 25.386C24.9595 25.6304 25.1229 25.9772 25.1973 26.3631C25.3574 27.1997 25.0485 27.9367 24.4945 28.0411C24.4512 28.0492 24.4072 28.0532 24.3631 28.0531ZM24.0552 25.3522C24.0314 25.3521 24.0076 25.3542 23.9842 25.3585C23.8154 25.3904 23.6734 25.5353 23.5839 25.7666C23.4866 26.0231 23.4642 26.3462 23.5275 26.6766C23.6505 27.3214 24.0679 27.8068 24.438 27.7392C24.8082 27.6716 25.0178 27.0659 24.8948 26.4211C24.8315 26.0907 24.6939 25.7971 24.5056 25.5942C24.3597 25.4367 24.2011 25.3522 24.0552 25.3522Z" fill="#1C1C1C"/>
<path d="M34.9511 25.8771C34.8154 26.6185 34.3309 27.1517 33.8684 27.0686C33.4058 26.9855 33.1392 26.318 33.2744 25.5752C33.4097 24.8323 33.8946 24.3001 34.3572 24.3836C34.8198 24.4672 35.0839 25.1352 34.9511 25.8771Z" fill="white"/>
<path d="M33.9637 27.1872C33.9214 27.1874 33.8793 27.1837 33.8377 27.1761C33.2832 27.0761 32.9685 26.3415 33.1217 25.504C33.1922 25.1176 33.3542 24.7694 33.578 24.5235C33.8212 24.2574 34.1057 24.1371 34.3844 24.1883C34.6632 24.2395 34.8888 24.4501 35.0207 24.7838C35.1428 25.092 35.171 25.4745 35.1004 25.8609C34.9589 26.6352 34.4744 27.1872 33.9637 27.1872ZM34.2604 24.4854C34.1111 24.4854 33.953 24.5699 33.808 24.7293C33.6227 24.9336 33.487 25.2282 33.4267 25.5591C33.3085 26.2048 33.524 26.8066 33.8932 26.8738C34.2623 26.9409 34.6773 26.4516 34.7955 25.8059C34.8563 25.475 34.8339 25.1519 34.7322 24.8964C34.6413 24.6655 34.4978 24.5216 34.329 24.4911C34.3063 24.4873 34.2834 24.4853 34.2604 24.4854Z" fill="#1C1C1C"/>
<path d="M31.865 19.3799L29.2213 18.269C28.5212 17.9755 27.7448 17.9122 27.0059 18.0884C26.2669 18.2645 25.6041 18.6709 25.1145 19.2481L24.2389 20.2797C23.741 20.8668 23.3993 21.5684 23.2452 22.3205C23.091 23.0726 23.1293 23.8511 23.3566 24.5847L25.1826 30.485C25.2863 30.82 25.4936 31.1141 25.7752 31.3255C26.0568 31.5369 26.3983 31.6548 26.7513 31.6625L32.4871 31.7861C32.787 31.792 33.0792 31.6914 33.3111 31.5023C33.5429 31.3133 33.6992 31.0482 33.7518 30.7549L34.6273 25.8767C34.7041 25.4454 34.7252 25.0062 34.6901 24.5697L34.4021 21.025C34.3748 20.689 34.2378 20.371 34.012 20.1193C33.7863 19.8676 33.484 19.6958 33.151 19.6301L31.865 19.3799Z" fill="black"/>
<path d="M15.4889 113.427L15.0044 118.127L17.2404 118.682L18.4327 114.055L15.4889 113.427Z" fill="white"/>
<path d="M17.2402 118.835C17.2027 118.831 14.9662 118.276 14.9662 118.276C14.9301 118.267 14.8985 118.245 14.8771 118.215C14.8558 118.184 14.8461 118.148 14.8499 118.111L15.3363 113.411C15.3385 113.389 15.3452 113.368 15.3562 113.35C15.3671 113.331 15.3819 113.315 15.3996 113.302C15.4172 113.289 15.4373 113.281 15.4586 113.276C15.4798 113.272 15.5018 113.272 15.5231 113.276L18.4674 113.904C18.4874 113.909 18.5064 113.917 18.5231 113.929C18.5398 113.941 18.5539 113.956 18.5647 113.974C18.5756 113.991 18.5828 114.011 18.5859 114.031C18.589 114.052 18.5879 114.072 18.5827 114.092L17.391 118.72C17.3822 118.753 17.3627 118.782 17.3354 118.803C17.3081 118.824 17.2746 118.835 17.2402 118.835ZM15.1719 118.009L17.1283 118.495L18.2427 114.173L15.6253 113.613L15.1719 118.009Z" fill="#1C1C1C"/>
<path d="M38.6323 111.779L39.772 116.288L42.0275 116.056L41.5683 111.38L38.6323 111.779Z" fill="white"/>
<path d="M39.7716 116.442C39.737 116.442 39.7035 116.43 39.6762 116.409C39.649 116.388 39.6296 116.359 39.6213 116.325L38.4816 111.817C38.4764 111.796 38.4756 111.774 38.4794 111.753C38.4832 111.732 38.4914 111.711 38.5035 111.693C38.5157 111.675 38.5316 111.66 38.5501 111.649C38.5686 111.637 38.5894 111.63 38.611 111.627L41.547 111.228C41.5676 111.225 41.5886 111.227 41.6087 111.232C41.6287 111.238 41.6475 111.247 41.6637 111.26C41.6801 111.273 41.6936 111.289 41.7037 111.307C41.7137 111.325 41.7199 111.345 41.7221 111.366L42.1813 116.042C42.1852 116.082 42.1729 116.123 42.147 116.154C42.1212 116.186 42.0838 116.206 42.0431 116.21L39.7871 116.441L39.7716 116.442ZM38.8245 111.909L39.8888 116.122L41.8583 115.919L41.4293 111.555L38.8245 111.909Z" fill="#1C1C1C"/>
<path d="M17.4763 64.2485L13.9834 114.541L19.5971 115.656L27.4508 75.3419C27.5544 74.8106 28.3205 74.7986 28.4382 75.3294L36.8965 113.509L42.7184 112.683L38.6233 70.2801C38.5807 69.8381 38.5111 69.399 38.4146 68.9654L36.0209 58.2197L17.4763 64.2485Z" fill="#1C1C1C"/>
<path d="M23.749 74.4153C22.5714 74.4153 21.9273 74.2752 21.8918 74.2675C21.8533 74.2571 21.8203 74.2324 21.7996 74.1984C21.779 74.1644 21.7724 74.1239 21.7811 74.0852C21.7898 74.0465 21.8132 74.0126 21.8464 73.9906C21.8796 73.9686 21.9201 73.9602 21.9594 73.9671C21.977 73.9709 23.1312 74.2187 25.1586 74.0453C27.0347 73.8845 30.0631 73.3208 33.8353 71.5419C33.8721 71.5265 33.9136 71.5257 33.951 71.5399C33.9883 71.554 34.0188 71.582 34.0359 71.6179C34.053 71.6538 34.0556 71.6949 34.0429 71.7325C34.0303 71.7702 34.0035 71.8016 33.9681 71.8202C30.1453 73.6217 27.0717 74.1921 25.1669 74.353C24.6318 74.3984 24.158 74.4153 23.749 74.4153Z" fill="white"/>
<path d="M14.2024 15.0752L13.8872 17.0072L17.7985 17.9056L18.1993 15.6379L14.2024 15.0752Z" fill="white"/>
<path d="M17.7984 18.0591C17.7633 18.0552 13.8526 17.1564 13.8526 17.1564C13.8143 17.1475 13.7808 17.1247 13.7589 17.0923C13.7369 17.0599 13.7282 17.0205 13.7344 16.982L14.0496 15.05C14.0558 15.0101 14.0776 14.9743 14.1103 14.9503C14.143 14.9264 14.184 14.9162 14.2242 14.922L18.2211 15.4847C18.2416 15.4876 18.2614 15.4945 18.2792 15.5051C18.297 15.5157 18.3125 15.5298 18.3247 15.5465C18.3369 15.5632 18.3456 15.5821 18.3503 15.6022C18.3549 15.6223 18.3555 15.6431 18.3519 15.6634L17.9511 17.9311C17.9448 17.9668 17.926 17.9991 17.8981 18.0224C17.8702 18.0458 17.8349 18.0586 17.7984 18.0586V18.0591ZM14.0637 16.8902L17.6738 17.721L18.0192 15.7702L14.3307 15.2509L14.0637 16.8902Z" fill="#1C1C1C"/>
<path d="M44.7656 68.5192L45.5852 70.4836L49.4401 69.3394L48.8948 67.2422L44.7656 68.5192Z" fill="white"/>
<path d="M45.5856 70.6371C45.5548 70.637 45.5247 70.6277 45.4993 70.6105C45.4738 70.5933 45.4541 70.5689 45.4426 70.5405L44.623 68.58C44.6148 68.5603 44.6109 68.539 44.6114 68.5176C44.6119 68.4963 44.6169 68.4752 44.626 68.4559C44.6352 68.4365 44.6483 68.4193 44.6645 68.4052C44.6807 68.3912 44.6997 68.3806 44.7203 68.3743L48.849 67.0972C48.8691 67.0911 48.8902 67.089 48.9111 67.0912C48.932 67.0933 48.9522 67.0997 48.9706 67.1098C48.989 67.1199 49.0052 67.1337 49.018 67.1504C49.0308 67.167 49.04 67.1861 49.045 67.2064L49.5903 69.3036C49.6004 69.3421 49.5951 69.383 49.5754 69.4177C49.5557 69.4524 49.5232 69.4781 49.4847 69.4895L45.6299 70.6337C45.6154 70.637 45.6005 70.6381 45.5856 70.6371ZM44.9742 68.6153L45.6751 70.2961L49.2532 69.2335L48.7858 67.4353L44.9742 68.6153Z" fill="#1C1C1C"/>
<path d="M13.7143 15.521L18.6271 16.402L16.3745 27.6558L21.2211 33.7555L24.6338 34.5689L24.7705 33.3489H33.7138L33.9185 34.7713C35.0105 35.0422 40.1296 35.9237 41.0173 39.1091L49.5495 67.9145L44.6367 69.3378L37.0583 45.2755L39.8567 69.8788L14.7382 67.913L18.289 41.7511L11.5994 30.5581C11.072 29.6928 10.8963 28.6606 11.1081 27.6712L13.7143 15.521Z" fill="#B1C4D2"/>
<path d="M39.8569 70.0313L14.7263 68.0655C14.7052 68.0638 14.6848 68.0578 14.6662 68.048C14.6475 68.0382 14.6311 68.0247 14.6178 68.0084C14.6046 67.9921 14.5948 67.9733 14.5891 67.9532C14.5834 67.933 14.5819 67.9119 14.5847 67.8911L18.1268 41.7823L11.4663 30.6357C10.9184 29.7385 10.736 28.6674 10.9565 27.6411L13.5628 15.4895C13.5711 15.4504 13.5945 15.416 13.6279 15.3937C13.6613 15.3715 13.7022 15.363 13.7418 15.3702L18.6546 16.2511C18.6748 16.2548 18.6941 16.2625 18.7113 16.2737C18.7286 16.2848 18.7434 16.2993 18.755 16.3161C18.7666 16.333 18.7746 16.352 18.7788 16.3721C18.7829 16.3921 18.783 16.4127 18.7791 16.4327L16.5416 27.6141L21.3084 33.6163L24.4984 34.3765L24.6151 33.3299C24.6193 33.2922 24.6374 33.2574 24.6658 33.2322C24.6943 33.207 24.7311 33.1931 24.7693 33.1932H33.714C33.7512 33.1932 33.7872 33.2065 33.8154 33.2307C33.8435 33.2549 33.8619 33.2884 33.8672 33.325L34.0569 34.6451L34.3069 34.7021C35.9539 35.0735 40.3287 36.0593 41.1654 39.0669L49.6966 67.8699C49.7025 67.8893 49.7044 67.9097 49.7022 67.9298C49.7 67.95 49.6938 67.9695 49.684 67.9872C49.6641 68.0229 49.6309 68.0495 49.5916 68.0611L44.6788 69.4845C44.6398 69.4958 44.5979 69.4915 44.5622 69.4724C44.5264 69.4534 44.4996 69.4211 44.4876 69.3826L37.3942 46.8562L40.0097 69.8603C40.0121 69.8818 40.0098 69.9036 40.0032 69.9242C39.9965 69.9449 39.9856 69.9638 39.971 69.98C39.9565 69.9961 39.9387 70.009 39.9187 70.0179C39.8988 70.0267 39.8773 70.0313 39.8555 70.0313H39.8569ZM14.9135 67.7713L39.6818 69.7096L36.9044 45.2917C36.9003 45.2538 36.9106 45.2157 36.9332 45.1849C36.9558 45.154 36.9891 45.1326 37.0267 45.1247C37.0642 45.1169 37.1034 45.1231 37.1366 45.1423C37.1698 45.1614 37.1947 45.1922 37.2064 45.2285L44.7376 69.145L49.3586 67.8076L40.8687 39.15C40.0797 36.3158 35.8362 35.3609 34.2383 35.0006C34.0968 34.9687 33.9742 34.9411 33.8813 34.918C33.8514 34.9106 33.8244 34.8946 33.8037 34.8718C33.7831 34.8491 33.7698 34.8208 33.7655 34.7904L33.5797 33.4994H24.9108L24.7897 34.5823C24.7873 34.604 24.7802 34.6249 24.769 34.6437C24.7578 34.6625 24.7428 34.6787 24.7248 34.6913C24.7068 34.7038 24.6863 34.7124 24.6647 34.7165C24.6431 34.7207 24.6209 34.7202 24.5995 34.7151L21.1854 33.9008C21.1516 33.8927 21.1216 33.8734 21.1003 33.8462L16.2551 27.7474C16.241 27.73 16.231 27.7097 16.2256 27.688C16.2202 27.6663 16.2197 27.6437 16.2239 27.6218L18.4459 16.524L13.8342 15.6971L11.2596 27.7039C11.0552 28.6544 11.2243 29.6466 11.7324 30.4773L18.4211 41.6712C18.4382 41.7004 18.4452 41.7343 18.441 41.7678L14.9135 67.7713Z" fill="#1C1C1C"/>
<path d="M23.6722 81.2904C23.6448 81.2903 23.618 81.283 23.5944 81.2693C23.5707 81.2556 23.5512 81.2359 23.5377 81.2123C23.5242 81.1886 23.5173 81.1619 23.5176 81.1347C23.5179 81.1075 23.5254 81.0809 23.5394 81.0576L26.8241 75.5664C26.8339 75.5479 26.8474 75.5315 26.8637 75.5184C26.8801 75.5052 26.899 75.4954 26.9192 75.4897C26.9395 75.484 26.9607 75.4825 26.9816 75.4852C27.0025 75.4879 27.0226 75.4948 27.0407 75.5054C27.0588 75.5161 27.0746 75.5303 27.087 75.5472C27.0994 75.5641 27.1082 75.5834 27.1128 75.6038C27.1175 75.6241 27.118 75.6453 27.1142 75.6658C27.1103 75.6864 27.1024 75.706 27.0907 75.7234L23.8054 81.215C23.7917 81.238 23.7721 81.2569 23.7488 81.2701C23.7254 81.2834 23.699 81.2903 23.6722 81.2904Z" fill="white"/>
<path d="M30.6998 77.6574C30.6788 77.6574 30.6579 77.6531 30.6386 77.6448C30.6193 77.6364 30.6019 77.6243 30.5874 77.6091L28.9657 75.9186C28.9506 75.9042 28.9386 75.8869 28.9303 75.8677C28.9221 75.8485 28.9179 75.8279 28.918 75.807C28.918 75.7862 28.9223 75.7656 28.9306 75.7465C28.9389 75.7273 28.951 75.7101 28.9663 75.6957C28.9815 75.6814 28.9994 75.6702 29.0191 75.663C29.0388 75.6557 29.0597 75.6525 29.0807 75.6535C29.1017 75.6545 29.1222 75.6597 29.1411 75.6689C29.1599 75.678 29.1767 75.6908 29.1905 75.7066L30.8122 77.3971C30.833 77.4189 30.8468 77.4463 30.8521 77.4759C30.8574 77.5055 30.8539 77.536 30.8419 77.5636C30.83 77.5912 30.8102 77.6148 30.7849 77.6314C30.7597 77.6479 30.7301 77.6568 30.6998 77.6569V77.6574Z" fill="white"/>
<path d="M32.1146 83.8505C32.0838 83.8504 32.0537 83.8411 32.0282 83.8239C32.0027 83.8067 31.983 83.7823 31.9716 83.7539L29.0609 76.8606C29.053 76.842 29.0489 76.822 29.0488 76.8018C29.0487 76.7816 29.0527 76.7616 29.0604 76.7429C29.0681 76.7243 29.0794 76.7073 29.0937 76.6929C29.108 76.6786 29.125 76.6672 29.1438 76.6594C29.1625 76.6516 29.1827 76.6475 29.203 76.6475C29.2233 76.6474 29.2435 76.6513 29.2623 76.6589C29.2811 76.6666 29.2982 76.6778 29.3126 76.692C29.3271 76.7062 29.3385 76.7231 29.3464 76.7418L32.2571 83.6375C32.267 83.6608 32.2708 83.6862 32.2684 83.7114C32.266 83.7366 32.2574 83.7608 32.2433 83.7819C32.2292 83.803 32.2101 83.8203 32.1876 83.8322C32.1651 83.8442 32.1401 83.8505 32.1146 83.8505Z" fill="white"/>
<path d="M34.3508 59.125C34.3187 59.125 34.2874 59.115 34.2613 59.0965C30.7815 56.6424 26.1294 51.7506 23.8934 49.3993C23.2226 48.6942 22.6433 48.0846 22.5426 48.0175C22.5245 48.008 22.5086 47.995 22.4955 47.9794C22.4825 47.9637 22.4728 47.9457 22.4668 47.9263C22.4608 47.9069 22.4587 47.8865 22.4607 47.8663C22.4626 47.8461 22.4685 47.8265 22.4781 47.8086C22.4877 47.7907 22.5008 47.7748 22.5165 47.7619C22.5323 47.749 22.5504 47.7393 22.57 47.7333C22.5895 47.7274 22.61 47.7253 22.6304 47.7273C22.6507 47.7292 22.6705 47.7351 22.6885 47.7446C22.7921 47.7963 23.0523 48.0643 24.1215 49.1883C26.3502 51.5318 30.9882 56.4091 34.4432 58.8482C34.4702 58.867 34.4903 58.8939 34.5008 58.9249C34.5113 58.9559 34.5115 58.9894 34.5015 59.0206C34.4914 59.0518 34.4716 59.0789 34.445 59.0981C34.4183 59.1173 34.3862 59.1276 34.3532 59.1274L34.3508 59.125Z" fill="#1C1C1C"/>
<path d="M35.5726 62.33C35.5482 62.33 35.524 62.3243 35.5021 62.3136C28.1572 58.5805 24.0422 55.2246 24.0013 55.1913C23.9721 55.1646 23.9542 55.1278 23.9515 55.0884C23.9488 55.049 23.9614 55.0101 23.9868 54.9797C24.0121 54.9493 24.0482 54.9297 24.0876 54.925C24.1271 54.9202 24.1669 54.9306 24.1988 54.9542C24.2392 54.9875 28.3304 58.3231 35.6432 62.0392C35.6738 62.0551 35.6982 62.0807 35.7125 62.1119C35.7268 62.1431 35.7302 62.1782 35.722 62.2115C35.7139 62.2449 35.6948 62.2745 35.6677 62.2958C35.6407 62.3171 35.6072 62.3288 35.5726 62.329V62.33Z" fill="#1C1C1C"/>
<path d="M17.8936 61.9367C17.8596 61.9367 17.8265 61.9255 17.7995 61.9049C17.7725 61.8843 17.7531 61.8554 17.7443 61.8227L16.7846 58.2708C16.7739 58.2314 16.7795 58.1894 16.8 58.1541C16.8205 58.1188 16.8544 58.093 16.894 58.0824C16.9337 58.0718 16.976 58.0773 17.0115 58.0977C17.0471 58.1181 17.0731 58.1517 17.0837 58.1911L18.0434 61.743C18.054 61.7824 18.0484 61.8244 18.0279 61.8597C18.0074 61.895 17.9736 61.9208 17.934 61.9314C17.9208 61.9348 17.9072 61.9366 17.8936 61.9367Z" fill="#1C1C1C"/>
<path d="M15.5881 116.638C15.9938 116.599 16.4637 116.597 16.8961 116.7C17.3674 116.812 17.7619 117.174 17.9618 117.666C18.6866 119.453 18.9162 120.341 18.9162 120.341L13.6069 120.27L14.2539 117.855C14.4338 117.181 14.9626 116.698 15.5881 116.638Z" fill="#1C1C1C"/>
<path d="M18.9875 120.847L13.5654 120.809L13.5708 119.862L18.9929 119.9L18.9875 120.847Z" fill="white"/>
<path d="M18.9879 121L13.5648 120.963C13.5238 120.962 13.4845 120.946 13.4557 120.917C13.4269 120.888 13.4109 120.849 13.4111 120.808L13.416 119.862C13.4165 119.841 13.4211 119.821 13.4294 119.802C13.4378 119.784 13.4497 119.767 13.4646 119.753C13.4791 119.739 13.4962 119.727 13.5151 119.72C13.534 119.712 13.5542 119.708 13.5746 119.709L18.9966 119.746C19.017 119.746 19.037 119.75 19.0558 119.758C19.0745 119.766 19.0915 119.777 19.1057 119.792C19.12 119.806 19.1313 119.823 19.139 119.842C19.1466 119.861 19.1505 119.881 19.1504 119.901L19.1455 120.847C19.1451 120.888 19.1286 120.927 19.0995 120.955C19.0705 120.984 19.0312 121 18.9903 121H18.9879ZM13.7215 120.656L18.8342 120.691L18.8371 120.053L13.7249 120.017L13.7215 120.656Z" fill="#1C1C1C"/>
<path d="M40.3013 115.335C40.6875 115.226 41.1418 115.142 41.5791 115.166C42.0553 115.192 42.5033 115.474 42.781 115.915C43.7986 117.518 44.1775 118.339 44.1775 118.339L39.0264 119.194L39.2263 116.743C39.2798 116.059 39.7083 115.5 40.3013 115.335Z" fill="#1C1C1C"/>
<path d="M44.266 118.827L38.933 119.748L38.7705 118.831L44.1041 117.909L44.266 118.827Z" fill="white"/>
<path d="M38.9329 119.902C38.8965 119.902 38.8613 119.889 38.8335 119.866C38.8056 119.843 38.7869 119.81 38.7806 119.775L38.6186 118.857C38.615 118.837 38.6154 118.817 38.6199 118.797C38.6243 118.777 38.6326 118.759 38.6444 118.742C38.656 118.726 38.6708 118.711 38.688 118.7C38.7052 118.69 38.7245 118.682 38.7446 118.679L44.0777 117.757C44.0977 117.754 44.1182 117.754 44.1381 117.759C44.1579 117.763 44.1767 117.772 44.1933 117.783C44.2099 117.795 44.2241 117.809 44.235 117.827C44.2458 117.844 44.2532 117.863 44.2567 117.883L44.4191 118.8C44.4228 118.82 44.4223 118.841 44.4179 118.86C44.4135 118.88 44.4051 118.899 44.3934 118.915C44.3696 118.948 44.3336 118.971 44.2932 118.978L38.9596 119.9C38.9508 119.901 38.9418 119.902 38.9329 119.902ZM38.9504 118.956L39.0593 119.57L44.0869 118.701L43.9784 118.086L38.9504 118.956Z" fill="#1C1C1C"/>
<path d="M19.1746 41.9725L18.2752 41.9039C18.248 41.9018 18.2218 41.8926 18.1993 41.8772C18.1769 41.8618 18.1589 41.8407 18.1473 41.8161C18.1358 41.7916 18.131 41.7644 18.1334 41.7374C18.1359 41.7104 18.1456 41.6845 18.1614 41.6624L18.8424 40.7133C18.8542 40.6969 18.8692 40.6829 18.8864 40.6722C18.9037 40.6615 18.9229 40.6543 18.9429 40.651C18.963 40.6477 18.9835 40.6483 19.0033 40.6529C19.0231 40.6574 19.0418 40.6658 19.0584 40.6776C19.0749 40.6893 19.089 40.7042 19.0997 40.7213C19.1105 40.7384 19.1178 40.7575 19.1211 40.7774C19.1244 40.7973 19.1238 40.8177 19.1192 40.8373C19.1146 40.857 19.1062 40.8756 19.0944 40.892L18.5715 41.6165L19.1848 41.6648C19.2259 41.6663 19.2646 41.684 19.2925 41.7139C19.3204 41.7438 19.3352 41.7835 19.3337 41.8242C19.3321 41.8649 19.3144 41.9034 19.2842 41.9311C19.2541 41.9588 19.2142 41.9735 19.1732 41.972L19.1746 41.9725Z" fill="#1C1C1C"/>
<path d="M37.2712 46.1051C37.2388 46.1049 37.2073 46.0947 37.1812 46.0758C37.155 46.0569 37.1354 46.0303 37.1253 45.9998L35.9579 42.545C35.9508 42.5083 35.9573 42.4703 35.9763 42.4381C35.9953 42.4058 36.0255 42.3815 36.0612 42.3697C36.0969 42.3579 36.1357 42.3594 36.1703 42.3738C36.205 42.3883 36.2332 42.4148 36.2497 42.4484L37.4171 45.9037C37.4296 45.9422 37.4265 45.9839 37.4083 46.0201C37.3901 46.0562 37.3583 46.0838 37.3198 46.0969C37.3041 46.1021 37.2877 46.1049 37.2712 46.1051Z" fill="#1C1C1C"/>
<path d="M33.2355 35.1263H26.2734C26.2338 35.1241 26.1966 35.1069 26.1694 35.0783C26.1421 35.0497 26.127 35.0118 26.127 34.9724C26.127 34.9331 26.1421 34.8952 26.1694 34.8666C26.1966 34.838 26.2338 34.8208 26.2734 34.8186H33.2355C33.2566 34.8174 33.2777 34.8205 33.2975 34.8277C33.3173 34.8349 33.3355 34.8461 33.3508 34.8605C33.3661 34.8749 33.3783 34.8922 33.3867 34.9115C33.395 34.9307 33.3994 34.9515 33.3994 34.9724C33.3994 34.9934 33.395 35.0141 33.3867 35.0334C33.3783 35.0526 33.3661 35.07 33.3508 35.0844C33.3355 35.0988 33.3173 35.1099 33.2975 35.1171C33.2777 35.1243 33.2566 35.1274 33.2355 35.1263Z" fill="#1C1C1C"/>
<path d="M37.6041 62.5089C37.5838 62.5089 37.5636 62.5049 37.5448 62.4971C37.526 62.4894 37.509 62.478 37.4946 62.4637C37.4802 62.4494 37.4688 62.4324 37.4611 62.4137C37.4534 62.395 37.4494 62.375 37.4495 62.3548V58.4908C37.4483 58.4699 37.4514 58.449 37.4587 58.4293C37.4659 58.4096 37.4771 58.3916 37.4916 58.3763C37.5061 58.3611 37.5236 58.349 37.543 58.3407C37.5624 58.3324 37.5833 58.3281 37.6044 58.3281C37.6255 58.3281 37.6464 58.3324 37.6658 58.3407C37.6852 58.349 37.7026 58.3611 37.7171 58.3763C37.7316 58.3916 37.7429 58.4096 37.7501 58.4293C37.7574 58.449 37.7605 58.4699 37.7593 58.4908V62.3548C37.7593 62.3957 37.743 62.4348 37.7139 62.4637C37.6848 62.4926 37.6453 62.5089 37.6041 62.5089Z" fill="#1C1C1C"/>
<path d="M22.3149 35.2612C22.2917 35.2612 22.2687 35.256 22.2477 35.2459C22.2267 35.2359 22.2083 35.2213 22.1938 35.2032L20.6757 33.3118C20.663 33.2959 20.6534 33.2777 20.6478 33.2582C20.6421 33.2387 20.6403 33.2183 20.6426 33.1981C20.6448 33.1779 20.6511 33.1584 20.6609 33.1406C20.6708 33.1228 20.6841 33.1071 20.7 33.0944C20.716 33.0817 20.7343 33.0723 20.754 33.0667C20.7736 33.061 20.7942 33.0592 20.8145 33.0615C20.8349 33.0637 20.8545 33.0699 20.8724 33.0797C20.8904 33.0895 20.9062 33.1027 20.9189 33.1186L22.4361 35.0114C22.4617 35.0434 22.4735 35.0841 22.469 35.1246C22.4644 35.1652 22.4438 35.2023 22.4117 35.2278C22.3841 35.2494 22.3501 35.2611 22.3149 35.2612Z" fill="#1C1C1C"/>
</g>
</svg>
