<svg width="10" height="10" viewBox="0 0 10 10" fill="none" xmlns="http://www.w3.org/2000/svg">
<path d="M5.357 7.1423V4.28516H3.92843V4.99944H4.64272V7.1423H3.57129V7.85658H6.42843V7.1423H5.357Z" fill="#95A6B3"/>
<path d="M5.00007 2.14453C4.89412 2.14453 4.79054 2.17595 4.70244 2.23482C4.61435 2.29368 4.54568 2.37735 4.50513 2.47524C4.46459 2.57313 4.45398 2.68084 4.47465 2.78476C4.49532 2.88868 4.54634 2.98413 4.62126 3.05905C4.69618 3.13397 4.79164 3.185 4.89556 3.20567C4.99948 3.22634 5.10719 3.21573 5.20508 3.17518C5.30297 3.13463 5.38664 3.06597 5.4455 2.97787C5.50437 2.88977 5.53578 2.7862 5.53578 2.68025C5.53578 2.53817 5.47934 2.4019 5.37888 2.30144C5.27841 2.20097 5.14215 2.14453 5.00007 2.14453Z" fill="#95A6B3"/>
<path d="M5 10C4.0111 10 3.0444 9.70676 2.22215 9.15735C1.3999 8.60794 0.759043 7.82705 0.380604 6.91342C0.00216642 5.99979 -0.0968502 4.99445 0.0960758 4.02455C0.289002 3.05465 0.765206 2.16373 1.46447 1.46447C2.16373 0.765206 3.05465 0.289002 4.02455 0.0960758C4.99445 -0.0968502 5.99979 0.00216642 6.91342 0.380604C7.82705 0.759043 8.60794 1.3999 9.15735 2.22215C9.70676 3.0444 10 4.0111 10 5C10 6.32608 9.47322 7.59785 8.53553 8.53553C7.59785 9.47322 6.32608 10 5 10ZM5 0.714288C4.15237 0.714288 3.32377 0.96564 2.61899 1.43656C1.9142 1.90748 1.36489 2.57682 1.04052 3.35993C0.716143 4.14304 0.631271 5.00476 0.796637 5.8361C0.962002 6.66745 1.37018 7.43109 1.96954 8.03046C2.56891 8.62983 3.33255 9.038 4.1639 9.20337C4.99525 9.36873 5.85696 9.28386 6.64007 8.95948C7.42318 8.63511 8.09252 8.0858 8.56344 7.38102C9.03436 6.67623 9.28571 5.84764 9.28571 5C9.28571 3.86336 8.83418 2.77327 8.03046 1.96954C7.22673 1.16582 6.13664 0.714288 5 0.714288Z" fill="#95A6B3"/>
</svg>
