<svg width="14" height="14" viewBox="0 0 14 14" fill="none" xmlns="http://www.w3.org/2000/svg">
<g id="Frame">
<path id="Edit" d="M13.6208 4.91434C13.8737 4.64287 14.0098 4.28234 13.9995 3.91093C13.9891 3.53952 13.8332 3.18716 13.5656 2.93026L11.0355 0.392482C10.7867 0.152995 10.4599 0.012023 10.1155 -0.0043335H10.0695C9.7329 0.000622642 9.40818 0.121133 9.14944 0.337113L0.869099 8.64256C0.624317 8.89075 0.474482 9.21746 0.445882 9.56539L0.0134641 13.4136C-0.00448802 13.4957 -0.00448802 13.5807 0.0134641 13.6627C0.0440792 13.7375 0.0876913 13.8063 0.142269 13.8658C0.19283 13.916 0.252057 13.9567 0.317077 13.9857C0.386995 13.999 0.458766 13.999 0.528685 13.9857H0.602288L4.42044 13.6351C4.76732 13.6064 5.09305 13.4561 5.34048 13.2106L13.6208 4.91434ZM10.0143 0.900038L13.0504 3.9546L10.6859 6.28012L7.70498 3.31785L10.0143 0.900038ZM1.15431 12.8968L1.48552 9.50079L1.57753 9.40851L7.00575 3.98228L10.0143 7.00916L4.49405 12.5461L1.15431 12.8968Z" fill="#7A7F86"/>
</g>
</svg>
