<svg width="83" height="26" viewBox="0 0 83 26" fill="none" xmlns="http://www.w3.org/2000/svg">
<g clip-path="url(#clip0_9160_20928)">
<path d="M44.5 10.4023H38.5V25.4023H44.5V10.4023Z" fill="#B1C4D2" stroke="white" stroke-width="0.3556" stroke-miterlimit="10"/>
<path d="M38.5 6.40234H32.5V25.4023H38.5V6.40234Z" fill="#B1C4D2" stroke="white" stroke-width="0.3556" stroke-miterlimit="10"/>
<path d="M32.5 2.40234H27.5V25.4023H32.5V2.40234Z" fill="#B1C4D2" stroke="white" stroke-width="0.3556" stroke-miterlimit="10"/>
<path d="M27.5 0.402344H21.5V25.4023H27.5V0.402344Z" fill="#B1C4D2" stroke="white" stroke-width="0.3556" stroke-miterlimit="10"/>
<path d="M21.5 4.40234H15.5V25.4023H21.5V4.40234Z" fill="#B1C4D2" stroke="white" stroke-width="0.3556" stroke-miterlimit="10"/>
<path d="M15.5 17.4023H9.5V25.4023H15.5V17.4023Z" fill="#B1C4D2" stroke="white" stroke-width="0.3556" stroke-miterlimit="10"/>
<path d="M9.5 24.25H4.5V25.25H9.5V24.25Z" fill="#B1C4D2" stroke="white" stroke-width="0.3556" stroke-miterlimit="10"/>
<path d="M50.5 25.4023H55.5V19.4023H50.5V25.4023Z" fill="#B1C4D2" stroke="white" stroke-width="0.3556" stroke-miterlimit="10"/>
<path d="M55.5 25.4023H61.5V22.4023H55.5V25.4023Z" fill="#B1C4D2" stroke="white" stroke-width="0.3556" stroke-miterlimit="10"/>
<path d="M61.5 25.25H67.5V22.25H61.5V25.25Z" fill="#B1C4D2" stroke="white" stroke-width="0.3556" stroke-miterlimit="10"/>
<path d="M67.5 25.25H73.5V24.25H67.5V25.25Z" fill="#B1C4D2" stroke="white" stroke-width="0.3556" stroke-miterlimit="10"/>
<path d="M73.5 25.25H78.5V24.25H73.5V25.25Z" fill="#B1C4D2" stroke="white" stroke-width="0.3556" stroke-miterlimit="10"/>
<path d="M50.5 15.4023H44.5V25.4023H50.5V15.4023Z" fill="#B1C4D2" stroke="white" stroke-width="0.3556" stroke-miterlimit="10"/>
<path d="M0.643555 25.1484H41.4998" stroke="#878787" stroke-width="0.4744" stroke-linecap="round" stroke-linejoin="round"/>
<path d="M24 2.40234C19 2.40234 17.3856 12.396 14.1865 18.2361C12.2443 21.7819 10.8507 23.091 8.09174 23.7955C6.33592 24.2436 3.3438 24.4128 1.5 24.4018" stroke="#5551F7" stroke-width="1.5708" stroke-miterlimit="10"/>
<path d="M23.5 2.41958C32 1.91943 39.6199 12.4132 48.0537 18.2534C53.1742 21.7992 56.8481 23.1083 64.1218 23.8127C68.7508 24.2609 76.6391 24.43 81.5 24.4191" stroke="#5551F7" stroke-width="1.5708" stroke-miterlimit="10"/>
<path d="M82.3565 25.1484H41.5" stroke="#878787" stroke-width="0.4744" stroke-linecap="round" stroke-linejoin="round"/>
</g>
<defs>
<clipPath id="clip0_9160_20928">
<rect width="82" height="25" fill="white" transform="translate(0.5 0.25)"/>
</clipPath>
</defs>
</svg>
