<svg width="21" height="21" viewBox="0 0 21 21" fill="none" xmlns="http://www.w3.org/2000/svg">
<path d="M18.7217 19.7835C19.7529 19.7835 20.2217 19.0335 19.7529 18.1273L11.4092 1.72104C10.9404 0.814789 10.1904 0.814789 9.72168 1.72104L1.37793 18.1273C0.909178 19.0335 1.37793 19.7835 2.40918 19.7835H18.7217Z" fill="#FF9900"/>
<path d="M11.8773 7.78354L11.0023 13.5648C10.9085 14.1273 10.1898 14.1273 10.096 13.5648L9.25228 7.78354C9.09603 5.53354 12.0335 5.53354 11.8773 7.78354Z" fill="white"/>
<path d="M10.5649 17.221C9.84007 17.221 9.25244 16.6334 9.25244 15.9085C9.25244 15.1837 9.84007 14.596 10.5649 14.596C11.2898 14.596 11.8774 15.1837 11.8774 15.9085C11.8774 16.6334 11.2898 17.221 10.5649 17.221Z" fill="white"/>
</svg>
