<svg width="13" height="15" viewBox="0 0 13 15" fill="none" xmlns="http://www.w3.org/2000/svg">
<g id="Frame">
<path id="Vector" d="M3.95395 3.43922C3.08345 2.64481 3 0.495667 3 0.495667C3 0.495667 2.91655 2.64481 2.04748 3.43922C1.1784 4.23363 0 4.49642 0 4.49642C0 4.49642 1.17843 4.76223 2.04748 5.55361C2.91655 6.34497 3 8.49567 3 8.49567C3 8.49567 3.08345 6.34803 3.95395 5.55361C4.82445 4.7592 6 4.49642 6 4.49642C6 4.49642 4.82314 4.23364 3.95395 3.43922Z" fill="#5551F7"/>
<path id="Vector_2" d="M10.2719 8.80716C9.11127 7.91345 9 5.49567 9 5.49567C9 5.49567 8.88874 7.91345 7.72997 8.80716C6.5712 9.70087 5 9.99651 5 9.99651C5 9.99651 6.57124 10.2956 7.72997 11.1859C8.88873 12.0761 9 14.4957 9 14.4957C9 14.4957 9.11127 12.0796 10.2719 11.1859C11.4326 10.2921 13 9.99651 13 9.99651C13 9.99651 11.4309 9.70089 10.2719 8.80716Z" fill="#5551F7"/>
</g>
</svg>
