<svg width="50" height="51" viewBox="0 0 50 51" fill="none" xmlns="http://www.w3.org/2000/svg">
<circle cx="25" cy="25.3359" r="25" fill="#303045"/>
<path d="M13.7706 17.5068C14.1966 17.2529 14.7515 17.3753 15.0298 17.7926C15.308 18.2099 15.2074 18.7691 14.8093 19.0648L14.7697 19.0926L8.71313 23.1302L14.7185 26.5974L14.7597 26.6226C15.176 26.8921 15.3124 27.4436 15.0616 27.878C14.8108 28.3123 14.265 28.4701 13.8235 28.2442L13.781 28.2211L6.46868 23.9993C6.18795 23.8373 6.01093 23.5417 6.00049 23.2177C5.99005 22.8937 6.14769 22.5873 6.41741 22.4075L13.7297 17.5326L13.7706 17.5068Z" fill="white"/>
<path fill-rule="evenodd" clip-rule="evenodd" d="M32.6204 19.7814C33.2034 18.7395 34.7966 18.7395 35.3796 19.7814L43.8201 34.8654C44.3633 35.8362 43.6111 37 42.4405 37H25.5595C24.3889 37 23.6367 35.8362 24.1799 34.8654L32.6204 19.7814ZM34 32.7005C33.2853 32.7005 32.7059 33.2688 32.7059 33.9698C32.7059 34.6708 33.2853 35.239 34 35.239C34.7147 35.239 35.2941 34.6707 35.2941 33.9698C35.2941 33.2689 34.7147 32.7006 34 32.7005ZM35.7564 24.6353C35.9656 22.0446 32.0342 22.0446 32.2433 24.6353L33.3725 31.2918C33.498 31.9394 34.46 31.9394 34.5855 31.2918L35.7564 24.6353Z" fill="white"/>
<path d="M22.2821 17.7926C22.5603 17.3753 23.1153 17.2529 23.5413 17.5067L23.5821 17.5326L30.1212 21.8918L27.9354 25.678L23.5309 28.2211L23.4884 28.2442C23.0469 28.47 22.501 28.3123 22.2503 27.878C21.9995 27.4436 22.1358 26.892 22.5522 26.6226L22.5934 26.5974L28.5987 23.1301L22.5421 19.0926L22.5026 19.0648C22.1044 18.7691 22.0039 18.2099 22.2821 17.7926Z" fill="white"/>
</svg>
