<svg width="51" height="50" viewBox="0 0 51 50" fill="none" xmlns="http://www.w3.org/2000/svg">
<circle cx="25.5" cy="25" r="25" fill="#FF802E"/>
<path d="M29.9905 9.20996V15.2761H35.962L29.9905 9.20996Z" fill="white"/>
<path d="M41.0545 37.7523L41.035 37.7143L36.1682 29.1954V16.3973H28.9061L28.8873 16.3783V16.3399L28.8874 9H15.2788C14.7547 9 14.3241 9.17766 13.9873 9.53248L14.0435 9.51342C13.6815 9.83023 13.5008 10.2612 13.5008 10.8062L13.5006 34.8237C13.4883 35.3432 13.6567 35.7745 14.006 36.1165C14.343 36.472 14.7671 36.6486 15.2789 36.6486H21.1564L20.6137 37.6185C20.1146 38.3666 19.9585 39.1911 20.1457 40.0905L20.127 40.0149C20.2393 40.8387 20.6072 41.5237 21.2313 42.0683C21.8801 42.6898 22.6415 43 23.5149 43H38.0594C38.1717 43 38.2843 42.9932 38.396 42.9806C39.0574 42.879 39.6557 42.6128 40.1926 42.1815C40.2308 42.1694 40.2618 42.15 40.2862 42.1248C40.8983 41.5927 41.285 40.9139 41.4475 40.0898V40.0722C41.5846 39.2233 41.4532 38.449 41.0545 37.7523L41.0545 37.7523ZM40.3993 39.8821V39.9011C40.2862 40.4716 40.025 40.941 39.6128 41.3083C39.6005 41.3211 39.5814 41.3334 39.557 41.347C39.1583 41.6509 38.721 41.8411 38.2467 41.9175H38.0595H23.515C22.9535 41.9296 22.4544 41.7334 22.0175 41.3272C21.5559 40.972 21.2815 40.5099 21.194 39.9394V39.901L21.1752 39.863C21.0753 39.28 21.1752 38.7468 21.4748 38.2657L28.7001 25.4679V25.4874C28.9494 25.0055 29.3612 24.6507 29.9356 24.422C29.9599 24.4095 29.9789 24.3969 29.9914 24.384C30.5406 24.2064 31.0711 24.2129 31.5824 24.4031C31.6326 24.4156 31.676 24.435 31.7138 24.4602C32.1754 24.6628 32.5435 24.9987 32.8181 25.4677L40.1183 38.2655L40.1371 38.2845C40.4113 38.7662 40.4992 39.2991 40.3993 39.8821Z" fill="white"/>
<path d="M31.7685 26.0951C31.6319 25.8539 31.4379 25.6767 31.1885 25.5626C30.9261 25.4739 30.6577 25.4739 30.384 25.5626C30.0961 25.6771 29.8846 25.8543 29.7476 26.0951L22.5223 38.8745C22.3602 39.1153 22.3104 39.3811 22.3725 39.6731C22.41 39.9515 22.541 40.1805 22.7657 40.3578C22.9903 40.5734 23.24 40.6814 23.5144 40.6814H38.0589C38.333 40.643 38.5823 40.5353 38.8077 40.3578C39.0196 40.1805 39.1506 39.9527 39.2008 39.6731C39.251 39.3811 39.2071 39.1152 39.0694 38.8745L31.7685 26.0951ZM31.563 38.3794C31.3253 38.6206 31.0322 38.7407 30.6829 38.7407C30.4579 38.7407 30.2527 38.6897 30.0655 38.5893C29.8661 38.4622 29.7035 38.3101 29.5785 38.1326C29.4661 37.9173 29.4104 37.6955 29.4104 37.467C29.4104 37.2385 29.4662 37.03 29.5785 36.8398C29.6912 36.6371 29.8469 36.485 30.0464 36.3835C30.2336 36.2568 30.4455 36.1933 30.6828 36.1933C30.8823 36.1933 31.0815 36.2568 31.2821 36.3835C31.494 36.4854 31.6498 36.6372 31.7501 36.8398C31.85 37.03 31.8995 37.2392 31.8995 37.467C31.9002 37.8339 31.788 38.1386 31.563 38.3794ZM31.8066 32.6943L31.4877 34.0634C31.3511 34.5194 31.2384 34.8365 31.1515 35.0142C31.1267 35.0648 31.0826 35.1218 31.0197 35.1849C30.9202 35.2736 30.8082 35.3184 30.6835 35.3184C30.5589 35.3059 30.4402 35.2549 30.3283 35.1666L30.2156 35.0148C30.1153 34.7863 29.9973 34.4634 29.8603 34.0449L29.5418 32.7138C29.4545 32.2448 29.4104 31.8452 29.4104 31.5158C29.4104 30.8943 29.547 30.4383 29.8225 30.1466C30.0719 29.842 30.3597 29.6903 30.6836 29.6903C30.9955 29.6903 31.2826 29.8295 31.5451 30.1086C31.7821 30.4258 31.9003 30.8944 31.9003 31.5158C31.9002 31.8188 31.8691 32.2117 31.8066 32.6943Z" fill="white"/>
</svg>
