<svg width="50" height="50" viewBox="0 0 50 50" fill="none" xmlns="http://www.w3.org/2000/svg">
<circle cx="25" cy="25" r="25" fill="#303045"/>
<path d="M21.2289 33.5548C21.3029 33.5367 21.3707 33.4989 21.4251 33.4457C21.4795 33.3923 21.5185 33.3252 21.538 33.2516L24.2825 23.4357C23.0145 23.5873 21.8314 24.1507 20.9144 25.0396C20.3449 25.5917 19.8918 26.2522 19.5814 26.9822C19.2711 27.7121 19.1099 28.4967 19.1074 29.2899C19.1035 30.8426 19.7144 32.3338 20.8068 33.4374C20.8602 33.4928 20.9276 33.5328 21.0018 33.5535C21.0761 33.5742 21.1544 33.5746 21.2288 33.5547L21.2289 33.5548Z" fill="white"/>
<path d="M22.5723 33.531C23.3305 33.8928 24.16 34.0807 25.0001 34.0807C25.8403 34.0807 26.6698 33.8928 27.428 33.531L25.0001 24.8466L22.5723 33.531Z" fill="white"/>
<path d="M27.1431 22.6732V22.3212C27.1431 21.5556 26.7348 20.8482 26.0717 20.4655C25.4087 20.0826 24.5919 20.0826 23.9289 20.4655C23.2658 20.8482 22.8574 21.5556 22.8574 22.3212V22.6641C23.6351 22.4117 24.451 22.2973 25.2681 22.326C25.9065 22.3514 26.5379 22.4683 27.1431 22.6732Z" fill="white"/>
<path d="M28.4627 33.2499C28.5072 33.396 28.6239 33.5087 28.7715 33.5479C28.919 33.5871 29.0763 33.5474 29.1875 33.4427C29.7535 32.8739 30.1968 32.1947 30.4896 31.4474C30.7825 30.7001 30.9187 29.9008 30.8899 29.0986C30.826 27.6991 30.2737 26.3659 29.3289 25.3315C28.3842 24.2969 27.1068 23.6261 25.7188 23.4357L28.4627 33.2499Z" fill="white"/>
<path d="M38.9286 10H11.0714C10.7873 10 10.5148 10.1129 10.3138 10.3138C10.1129 10.5148 10 10.7873 10 11.0714V13.2143H40V11.0714C40 10.7873 39.8871 10.5148 39.6862 10.3138C39.4852 10.1129 39.2127 10 38.9286 10ZM12.1429 12.1429H11.6071C11.4158 12.1429 11.2389 12.0407 11.1432 11.875C11.0475 11.7093 11.0475 11.505 11.1432 11.3393C11.239 11.1735 11.4158 11.0714 11.6071 11.0714H12.1429C12.3342 11.0714 12.5111 11.1735 12.6068 11.3393C12.7025 11.505 12.7025 11.7092 12.6068 11.875C12.511 12.0407 12.3342 12.1429 12.1429 12.1429ZM14.8214 12.1429H14.2857C14.0943 12.1429 13.9175 12.0407 13.8218 11.875C13.726 11.7093 13.726 11.505 13.8218 11.3393C13.9175 11.1735 14.0944 11.0714 14.2857 11.0714H14.8214C15.0128 11.0714 15.1896 11.1735 15.2854 11.3393C15.3811 11.505 15.3811 11.7092 15.2854 11.875C15.1896 12.0407 15.0128 12.1429 14.8214 12.1429ZM17.5 12.1429H16.9643C16.7729 12.1429 16.5961 12.0407 16.5004 11.875C16.4046 11.7093 16.4046 11.505 16.5004 11.3393C16.5961 11.1735 16.7729 11.0714 16.9643 11.0714H17.5C17.6914 11.0714 17.8682 11.1735 17.9639 11.3393C18.0597 11.505 18.0597 11.7092 17.9639 11.875C17.8682 12.0407 17.6914 12.1429 17.5 12.1429ZM38.3929 12.1429H35.1786C34.9872 12.1429 34.8104 12.0407 34.7146 11.875C34.6189 11.7093 34.6189 11.505 34.7146 11.3393C34.8104 11.1735 34.9872 11.0714 35.1786 11.0714H38.3929C38.5842 11.0714 38.7611 11.1735 38.8568 11.3393C38.9525 11.505 38.9525 11.7092 38.8568 11.875C38.761 12.0407 38.5842 12.1429 38.3929 12.1429Z" fill="white"/>
<path d="M11.0714 39.9993H38.9286C39.2127 39.9993 39.4852 39.8864 39.6862 39.6855C39.8871 39.4845 40 39.2121 40 38.9279V14.285H10V38.9279C10 39.2121 10.1129 39.4845 10.3138 39.6855C10.5148 39.8864 10.7873 39.9993 11.0714 39.9993ZM13.3214 30.035L14.4464 28.535C14.8521 27.9966 15.4866 27.6794 16.1607 27.6779H18.2285C18.4212 26.8494 18.7663 26.0641 19.2464 25.362L17.8374 23.9653H17.8375C17.5411 23.6704 17.3375 23.2951 17.2519 22.8857C17.1662 22.4764 17.2022 22.0509 17.3554 21.6618L18.0357 19.977C18.0859 19.841 18.189 19.7311 18.3217 19.6724C18.4542 19.6138 18.6049 19.6114 18.7394 19.6658C18.8737 19.7202 18.9803 19.8267 19.0347 19.9611C19.0892 20.0954 19.0869 20.2461 19.0283 20.3788L18.3485 22.061C18.2728 22.2545 18.2552 22.4661 18.298 22.6696C18.3409 22.8731 18.4422 23.0597 18.5896 23.2063L19.9241 24.5284C20.006 24.441 20.0848 24.3505 20.1694 24.2669V24.267C20.6501 23.8055 21.1944 23.4151 21.7857 23.1077V22.3208C21.7874 21.1795 22.3939 20.1249 23.3794 19.5495L22.3616 17.1741C22.2864 16.998 22.3108 16.7953 22.4257 16.6421C22.5406 16.4889 22.7284 16.4087 22.9185 16.4316C23.1087 16.4544 23.2721 16.577 23.3473 16.7531L24.3791 19.1676C24.7875 19.0868 25.2077 19.0868 25.6161 19.1676L26.6473 16.7569C26.7225 16.5808 26.886 16.4582 27.0761 16.4352C27.2662 16.4124 27.454 16.4927 27.5689 16.6459C27.6838 16.7991 27.7083 17.0018 27.633 17.1779L26.619 19.5512C26.8561 19.6886 27.0749 19.8553 27.2704 20.0473C27.874 20.6499 28.2135 21.4677 28.2143 22.3208V23.1405C28.8987 23.5087 29.5187 23.9856 30.0501 24.5526L31.4103 23.2042C31.5576 23.0572 31.6585 22.8703 31.7008 22.6666C31.7431 22.4629 31.7248 22.2512 31.6482 22.0578L30.97 20.3789C30.8982 20.2013 30.9266 19.9988 31.0446 19.8479C31.1625 19.6969 31.3521 19.6204 31.5418 19.647C31.7315 19.6737 31.8925 19.7995 31.9643 19.9771L32.6446 21.6592C32.7985 22.0479 32.8353 22.473 32.7505 22.8823C32.6659 23.2916 32.4633 23.6671 32.1679 23.9628L30.7321 25.3862C31.2128 26.0812 31.5633 26.8578 31.7666 27.678H33.8392C34.5133 27.6797 35.1478 27.9969 35.5535 28.5351L36.6785 30.0351C36.7934 30.1882 36.8178 30.391 36.7425 30.567C36.6674 30.743 36.504 30.8655 36.314 30.8884C36.124 30.9113 35.9362 30.8311 35.8214 30.678L34.6964 29.178C34.4934 28.909 34.1762 28.7505 33.8392 28.7494H31.9353C31.9434 28.8566 31.9578 28.9594 31.9611 29.0666H31.961C31.9986 30.2056 31.7555 31.3363 31.2528 32.3591L32.943 34.0493L32.9429 34.0492C33.2391 34.3459 33.442 34.7226 33.5271 35.1331C33.6123 35.5434 33.5757 35.9698 33.422 36.3598L32.7395 38.0564C32.6889 38.1916 32.5859 38.3007 32.4538 38.359C32.3217 38.4173 32.1716 38.4198 32.0377 38.3659C31.9038 38.312 31.7973 38.2063 31.7422 38.0728C31.6873 37.9393 31.6886 37.7893 31.7457 37.6567L32.426 35.9639C32.5027 35.7685 32.5208 35.555 32.4781 35.3495C32.4354 35.144 32.3337 34.9553 32.1855 34.8067L30.6855 33.3067C30.4648 33.6231 30.2184 33.9209 29.9489 34.197C29.6702 34.482 29.2884 34.6425 28.8897 34.6422C28.605 34.644 28.3259 34.563 28.0862 34.4092C27.1347 34.9139 26.0742 35.1777 24.9972 35.1777C23.9204 35.1777 22.8598 34.9139 21.9083 34.4092C21.7801 34.4904 21.6403 34.5518 21.4937 34.5914C21.2375 34.6596 20.9678 34.6584 20.7122 34.5875C20.4567 34.5167 20.2248 34.3789 20.0403 34.1885C19.7737 33.9148 19.5298 33.62 19.3112 33.3067L17.8112 34.8067C17.6626 34.9559 17.5609 35.1453 17.5185 35.3516C17.476 35.5578 17.4947 35.7719 17.5722 35.9676L18.251 37.6567C18.3082 37.7893 18.3095 37.9393 18.2544 38.0728C18.1995 38.2063 18.0929 38.312 17.959 38.3659C17.825 38.4198 17.675 38.4173 17.5428 38.359C17.4108 38.3007 17.3078 38.1916 17.2573 38.0564L16.5764 36.3636C16.4217 35.9732 16.3846 35.5463 16.4694 35.1351C16.5542 34.7239 16.7573 34.3465 17.0537 34.0492L18.746 32.3564C18.278 31.4017 18.0349 30.3526 18.0356 29.2894C18.0356 29.1078 18.049 28.9283 18.0624 28.7494H16.1606C15.8236 28.7503 15.5064 28.9089 15.3035 29.178L14.1785 30.678C14.0636 30.8311 13.8759 30.9113 13.6859 30.8884C13.4959 30.8655 13.3325 30.743 13.2573 30.567C13.1821 30.391 13.2065 30.1882 13.3214 30.0351L13.3214 30.035Z" fill="white"/>
</svg>
