<svg width="50" height="50" viewBox="0 0 50 50" fill="none" xmlns="http://www.w3.org/2000/svg">
<circle cx="25" cy="25" r="25" fill="#303045"/>
<path d="M32.1028 18.3065H11.2042C10.5666 18.3065 10 18.8734 10 19.5107V34.6002C10 35.2378 10.5668 35.8044 11.2042 35.8044H19.2094V38.0005H18.1468C16.8715 38.0005 15.8799 38.9923 15.8799 40.2673C15.8799 40.6215 16.1634 40.905 16.5176 40.905H26.7898C27.144 40.905 27.4274 40.6215 27.4274 40.2673C27.4274 38.992 26.4355 38.0005 25.1606 38.0005H24.0979V35.8044H32.1031C32.7408 35.8044 33.3073 35.2376 33.3073 34.6002L33.3071 19.5107C33.3071 18.8023 32.7403 18.3065 32.1027 18.3065H32.1028ZM21.6181 34.5295C21.1223 34.5295 20.7681 34.1753 20.7681 33.6795C20.7681 33.1837 21.1223 32.8295 21.6181 32.8295C22.1139 32.8295 22.4681 33.1837 22.4681 33.6795C22.4681 34.1045 22.1139 34.5295 21.6181 34.5295ZM30.8276 31.5542H12.4794V20.7153H30.8985V31.5542H30.8276Z" fill="white"/>
<path d="M32.7406 8.76086C27.7816 8.76086 23.8145 12.7988 23.8145 17.687C23.8145 22.646 27.8524 26.6132 32.7406 26.6132C37.6996 26.6132 41.6668 22.5753 41.6668 17.687C41.6668 12.7281 37.6289 8.76086 32.7406 8.76086ZM25.798 19.1039C25.7273 18.6081 25.6565 18.1828 25.6565 17.687C25.6565 17.1912 25.7273 16.6952 25.798 16.2702H27.8525C27.7817 16.766 27.7817 17.1913 27.7817 17.687C27.7817 18.1828 27.7817 18.6789 27.8525 19.1039H25.798ZM26.4357 20.9457H28.136C28.3486 22.0084 28.6318 22.9294 29.057 23.7087C27.9234 23.071 27.0026 22.0792 26.4358 20.9457H26.4357ZM28.136 14.4282H26.4357C27.0025 13.2948 27.9233 12.3029 29.0567 11.6653C28.6317 12.4445 28.3484 13.3656 28.136 14.4282ZM31.8197 24.417C31.0405 23.7794 30.4028 22.5044 30.0486 20.9457H31.8197V24.417ZM31.8197 19.1038H29.7652C29.6944 18.608 29.6944 18.112 29.6944 17.687C29.6944 17.1912 29.6944 16.7659 29.7652 16.2701H31.8197V19.1038ZM31.8197 14.4283H30.0486C30.4028 12.8699 31.0405 11.5946 31.8197 10.9569V14.4283ZM39.0456 14.4283H37.3453C37.1327 13.3656 36.8495 12.4446 36.4243 11.6654C37.4869 12.303 38.408 13.2238 39.0456 14.4283ZM33.6614 10.9569C34.4406 11.5946 35.0783 12.8696 35.4325 14.4283H33.6614V10.9569ZM33.6614 24.417V20.9457H35.4325C35.0075 22.5041 34.4408 23.7794 33.6614 24.417ZM35.7159 19.1038H33.6614V16.2701H35.7159C35.7867 16.7659 35.7867 17.262 35.7867 17.687C35.7867 18.112 35.7867 18.6078 35.7159 19.1038ZM36.4243 23.7086C36.8493 22.9294 37.1328 21.9375 37.3454 20.9457H39.0457C38.408 22.0791 37.487 23.071 36.4243 23.7086ZM37.6288 19.1038C37.6996 18.608 37.6996 18.1828 37.6996 17.687C37.6996 17.1912 37.6996 16.6951 37.6288 16.2701H39.6833C39.7541 16.7659 39.8249 17.1912 39.8249 17.687C39.8249 18.1828 39.7541 18.6788 39.6833 19.1038H37.6288Z" fill="white"/>
</svg>
