<svg width="50" height="50" viewBox="0 0 50 50" fill="none" xmlns="http://www.w3.org/2000/svg">
<circle cx="25" cy="25" r="25" fill="#303045"/>
<path d="M14.0502 25.2558H15.7104C16.0578 25.2558 16.34 24.9686 16.34 24.6129C16.34 24.2581 16.0587 23.97 15.7104 23.97H14.0502C13.7028 23.97 13.4206 24.2572 13.4206 24.6129C13.4206 24.9677 13.7019 25.2558 14.0502 25.2558ZM21.0764 14.6567C20.8366 14.9121 20.4383 14.9189 20.1892 14.674C19.9391 14.4292 19.9324 14.0225 20.1722 13.768C20.8037 13.0971 21.5559 12.5718 22.3761 12.2151C23.1991 11.8566 24.0921 11.6667 25 11.6667C25.909 11.6667 26.8 11.8576 27.624 12.2151C28.4451 12.5718 29.1974 13.0981 29.8279 13.768C30.0677 14.0234 30.0601 14.4292 29.8109 14.674C29.5608 14.9189 29.1635 14.9112 28.9237 14.6567C28.4112 14.1111 27.7996 13.6841 27.1323 13.394C26.4669 13.1048 25.7429 12.9506 25.0001 12.9506C24.2573 12.9506 23.5324 13.1049 22.867 13.394C22.1997 13.6841 21.589 14.1111 21.0756 14.6567H21.0764ZM22.3043 17.0597C22.0646 17.3151 21.6663 17.3219 21.4171 17.0771C21.167 16.8323 21.1604 16.4255 21.4001 16.171C21.8702 15.6708 22.4318 15.2794 23.0434 15.0124C23.6588 14.7454 24.3242 14.6027 25 14.6027C25.6768 14.6027 26.3412 14.7454 26.9567 15.0124C27.5692 15.2785 28.1308 15.6708 28.5999 16.171C28.8397 16.4264 28.8321 16.8322 28.5829 17.0771C28.3328 17.3219 27.9354 17.3142 27.6957 17.0597C27.3436 16.6848 26.9227 16.3908 26.4649 16.1923C26.009 15.9937 25.5107 15.8887 25 15.8887C24.4894 15.8887 23.991 15.9938 23.5342 16.1923C23.0764 16.3918 22.6564 16.6848 22.3034 17.0597H22.3043ZM23.5323 19.4637C23.2926 19.7191 22.8943 19.7259 22.6451 19.4811C22.395 19.2362 22.3883 18.8295 22.6281 18.575C22.9377 18.2463 23.3077 17.987 23.7116 17.8116C24.1175 17.6352 24.5554 17.5407 25.0009 17.5407C25.4464 17.5407 25.8844 17.6352 26.2902 17.8116C26.6932 17.9861 27.0642 18.2453 27.3738 18.575C27.6135 18.8304 27.606 19.2362 27.3568 19.4811C27.1067 19.7259 26.7093 19.7182 26.4696 19.4637C26.2779 19.2603 26.0486 19.0993 25.7994 18.9914C25.5521 18.8835 25.2803 18.8266 25.0018 18.8266C24.7225 18.8266 24.4507 18.8835 24.2033 18.9914C23.9541 19.0993 23.7247 19.2603 23.5332 19.4637H23.5323ZM12.8109 20.8113H37.1891C37.9621 20.8113 38.6663 21.1341 39.175 21.6537C39.6837 22.1732 40 22.8913 40 23.6818V35.4628C40 36.2522 39.6838 36.9713 39.175 37.4909C38.6664 38.0104 37.9632 38.3334 37.1891 38.3334H12.8109C12.0379 38.3334 11.3337 38.0105 10.825 37.4909C10.3163 36.9714 10 36.2533 10 35.4628V23.6818C10 22.8924 10.3162 22.1733 10.825 21.6537C11.3336 21.1342 12.0368 20.8113 12.8109 20.8113ZM34.2904 35.1736H35.9507C36.2981 35.1736 36.5802 34.8864 36.5802 34.5307C36.5802 34.1759 36.299 33.8878 35.9507 33.8878H34.2904C33.943 33.8878 33.6609 34.175 33.6609 34.5307C33.6609 34.8854 33.9421 35.1736 34.2904 35.1736ZM18.0975 35.1736H31.9014C32.2488 35.1736 32.531 34.8864 32.531 34.5307C32.531 34.1759 32.2497 33.8878 31.9014 33.8878H18.0975C17.7501 33.8878 17.468 34.175 17.468 34.5307C17.468 34.8854 17.7492 35.1736 18.0975 35.1736ZM14.0492 35.1736H15.7094C16.0568 35.1736 16.339 34.8864 16.339 34.5307C16.339 34.1759 16.0577 33.8878 15.7094 33.8878H14.0492C13.7018 33.8878 13.4196 34.175 13.4196 34.5307C13.4196 34.8854 13.7009 35.1736 14.0492 35.1736ZM34.2904 32.6944H35.9507C36.2981 32.6944 36.5802 32.4072 36.5802 32.0515C36.5802 31.6967 36.299 31.4086 35.9507 31.4086H34.2904C33.943 31.4086 33.6609 31.6958 33.6609 32.0515C33.6609 32.4062 33.9421 32.6944 34.2904 32.6944ZM30.2421 32.6944H31.9023C32.2497 32.6944 32.5319 32.4072 32.5319 32.0515C32.5319 31.6967 32.2506 31.4086 31.9023 31.4086H30.2421C29.8947 31.4086 29.6125 31.6958 29.6125 32.0515C29.6125 32.4062 29.8938 32.6944 30.2421 32.6944ZM26.1937 32.6944H27.854C28.2013 32.6944 28.4835 32.4072 28.4835 32.0515C28.4835 31.6967 28.2023 31.4086 27.854 31.4086H26.1937C25.8463 31.4086 25.5642 31.6958 25.5642 32.0515C25.5642 32.4062 25.8454 32.6944 26.1937 32.6944ZM22.1454 32.6944H23.8056C24.153 32.6944 24.4352 32.4072 24.4352 32.0515C24.4352 31.6967 24.1539 31.4086 23.8056 31.4086H22.1454C21.798 31.4086 21.5158 31.6958 21.5158 32.0515C21.5158 32.4062 21.797 32.6944 22.1454 32.6944ZM18.097 32.6944H19.7572C20.1046 32.6944 20.3868 32.4072 20.3868 32.0515C20.3868 31.6967 20.1056 31.4086 19.7572 31.4086H18.097C17.7496 31.4086 17.4674 31.6958 17.4674 32.0515C17.4674 32.4062 17.7487 32.6944 18.097 32.6944ZM14.0486 32.6944H15.7089C16.0563 32.6944 16.3384 32.4072 16.3384 32.0515C16.3384 31.6967 16.0572 31.4086 15.7089 31.4086H14.0486C13.7013 31.4086 13.4191 31.6958 13.4191 32.0515C13.4191 32.4062 13.7003 32.6944 14.0486 32.6944ZM34.2899 30.2152H35.9501C36.2975 30.2152 36.5797 29.928 36.5797 29.5723C36.5797 29.2175 36.2985 28.9294 35.9501 28.9294H34.2899C33.9425 28.9294 33.6604 29.2166 33.6604 29.5723C33.6604 29.927 33.9416 30.2152 34.2899 30.2152ZM30.2415 30.2152H31.9018C32.2492 30.2152 32.5313 29.928 32.5313 29.5723C32.5313 29.2175 32.2501 28.9294 31.9018 28.9294H30.2415C29.8942 28.9294 29.612 29.2166 29.612 29.5723C29.612 29.927 29.8932 30.2152 30.2415 30.2152ZM26.1932 30.2152H27.8534C28.2008 30.2152 28.483 29.928 28.483 29.5723C28.483 29.2175 28.2017 28.9294 27.8534 28.9294H26.1932C25.8458 28.9294 25.5636 29.2166 25.5636 29.5723C25.5636 29.927 25.8449 30.2152 26.1932 30.2152ZM22.1448 30.2152H23.8051C24.1525 30.2152 24.4346 29.928 24.4346 29.5723C24.4346 29.2175 24.1534 28.9294 23.8051 28.9294H22.1448C21.7974 28.9294 21.5153 29.2166 21.5153 29.5723C21.5153 29.927 21.7965 30.2152 22.1448 30.2152ZM18.0965 30.2152H19.7567C20.1041 30.2152 20.3863 29.928 20.3863 29.5723C20.3863 29.2175 20.105 28.9294 19.7567 28.9294H18.0965C17.7491 28.9294 17.4669 29.2166 17.4669 29.5723C17.4669 29.927 17.7482 30.2152 18.0965 30.2152ZM14.0481 30.2152H15.7084C16.0558 30.2152 16.3379 29.928 16.3379 29.5723C16.3379 29.2175 16.0567 28.9294 15.7084 28.9294H14.0481C13.7007 28.9294 13.4186 29.2166 13.4186 29.5723C13.4186 29.927 13.6998 30.2152 14.0481 30.2152ZM34.2894 27.736H35.9496C36.297 27.736 36.5792 27.4488 36.5792 27.0931C36.5792 26.7383 36.2979 26.4502 35.9496 26.4502H34.2894C33.942 26.4502 33.6598 26.7374 33.6598 27.0931C33.6598 27.4478 33.9411 27.736 34.2894 27.736ZM30.241 27.736H31.9013C32.2487 27.736 32.5308 27.4488 32.5308 27.0931C32.5308 26.7383 32.2496 26.4502 31.9013 26.4502H30.241C29.8936 26.4502 29.6115 26.7374 29.6115 27.0931C29.6115 27.4478 29.8927 27.736 30.241 27.736ZM26.1927 27.736H27.8529C28.2003 27.736 28.4825 27.4488 28.4825 27.0931C28.4825 26.7383 28.2012 26.4502 27.8529 26.4502H26.1927C25.8453 26.4502 25.5631 26.7374 25.5631 27.0931C25.5631 27.4478 25.8444 27.736 26.1927 27.736ZM22.1443 27.736H23.8046C24.1519 27.736 24.4341 27.4488 24.4341 27.0931C24.4341 26.7383 24.1529 26.4502 23.8046 26.4502H22.1443C21.7969 26.4502 21.5148 26.7374 21.5148 27.0931C21.5148 27.4478 21.796 27.736 22.1443 27.736ZM18.096 27.736H19.7562C20.1036 27.736 20.3857 27.4488 20.3857 27.0931C20.3857 26.7383 20.1045 26.4502 19.7562 26.4502H18.096C17.7486 26.4502 17.4664 26.7374 17.4664 27.0931C17.4664 27.4478 17.7476 27.736 18.096 27.736ZM14.0476 27.736H15.7078C16.0552 27.736 16.3374 27.4488 16.3374 27.0931C16.3374 26.7383 16.0561 26.4502 15.7078 26.4502H14.0476C13.7002 26.4502 13.418 26.7374 13.418 27.0931C13.418 27.4478 13.6993 27.736 14.0476 27.736ZM34.2889 25.2568H35.9491C36.2965 25.2568 36.5786 24.9696 36.5786 24.6139C36.5786 24.2591 36.2974 23.971 35.9491 23.971H34.2889C33.9415 23.971 33.6593 24.2582 33.6593 24.6139C33.6593 24.9686 33.9405 25.2568 34.2889 25.2568ZM30.2405 25.2568H31.9007C32.2481 25.2568 32.5303 24.9696 32.5303 24.6139C32.5303 24.2591 32.2491 23.971 31.9007 23.971H30.2405C29.8931 23.971 29.6109 24.2582 29.6109 24.6139C29.6109 24.9686 29.8922 25.2568 30.2405 25.2568ZM26.1921 25.2568H27.8524C28.1998 25.2568 28.4819 24.9696 28.4819 24.6139C28.4819 24.2591 28.2007 23.971 27.8524 23.971H26.1921C25.8448 23.971 25.5626 24.2582 25.5626 24.6139C25.5626 24.9686 25.8438 25.2568 26.1921 25.2568ZM22.1438 25.2568H23.804C24.1514 25.2568 24.4336 24.9696 24.4336 24.6139C24.4336 24.2591 24.1523 23.971 23.804 23.971H22.1438C21.7964 23.971 21.5142 24.2582 21.5142 24.6139C21.5142 24.9686 21.7955 25.2568 22.1438 25.2568ZM18.0954 25.2568H19.7557C20.1031 25.2568 20.3852 24.9696 20.3852 24.6139C20.3852 24.2591 20.104 23.971 19.7557 23.971H18.0954C17.748 23.971 17.4659 24.2582 17.4659 24.6139C17.4659 24.9686 17.7471 25.2568 18.0954 25.2568Z" fill="white"/>
</svg>
