<svg width="51" height="50" viewBox="0 0 51 50" fill="none" xmlns="http://www.w3.org/2000/svg">
<circle cx="25.5" cy="25" r="25" fill="#0DC783"/>
<path d="M25.5124 8.00004C24.182 7.99335 22.9378 8.77261 22.2505 10.0555C22.2406 10.0689 22.2317 10.0832 22.2238 10.0982L10.9927 31.6741C9.56214 34.4232 11.427 38 14.2691 38H36.7308C39.5729 37.9998 41.4378 34.423 40.0074 31.6741L28.7762 10.0982C28.1351 8.86715 26.9783 8.08426 25.7093 8.00601C25.6986 8.00456 25.6878 8.00348 25.677 8.0033C25.6723 8.00311 25.6676 8.00384 25.6627 8.00348C25.6556 8.00366 25.6485 8.0033 25.6414 8.00402C25.5983 8.00275 25.5553 8.00131 25.5124 8.00131L25.5124 8.00004ZM25.516 10.7368C25.5315 10.7372 25.5471 10.7377 25.5628 10.7383C26.0204 10.763 26.4331 11.0416 26.6597 11.4767C26.661 11.4789 26.6622 11.4812 26.6633 11.4834L37.8903 33.051C37.9029 33.0756 37.9128 33.1016 37.9196 33.1289C38.1407 33.6081 38.137 34.1387 37.9231 34.5475C37.6973 34.9783 37.2547 35.26 36.731 35.26H14.2696C13.7459 35.26 13.303 34.9781 13.0771 34.5474C12.8512 34.1166 12.8502 33.5494 13.1094 33.051L24.3406 11.4755C24.5818 11.0124 25.0313 10.7291 25.5162 10.7358L25.516 10.7368ZM25.4822 11.4217C25.2234 11.4284 24.9957 11.5794 24.8695 11.8216L13.638 33.3966C13.4758 33.7085 13.4924 33.9881 13.6045 34.2019C13.7168 34.4156 13.9326 34.5761 14.2689 34.5761H36.7304C37.0665 34.5761 37.2823 34.4161 37.3944 34.2021C37.5065 33.9884 37.523 33.7084 37.3608 33.3966C37.3596 33.3945 37.3583 33.3923 37.3571 33.3899L26.1301 11.8223C26.0082 11.5891 25.7875 11.4367 25.5341 11.4235C25.5166 11.4228 25.4992 11.4225 25.4819 11.4228L25.4822 11.4217ZM27.2062 17.1132L27.2073 17.1134C27.306 17.1179 27.3967 17.1754 27.4508 17.2679C27.5049 17.3603 27.5159 17.4763 27.4802 17.5792C26.8244 19.4651 26.1215 21.4859 25.4804 23.3294L29.2087 23.3386C29.3297 23.339 29.4391 23.4189 29.488 23.5425C29.5371 23.6661 29.5163 23.8104 29.4352 23.9109L22.101 32.9851C22.0023 33.1069 21.8405 33.1331 21.715 33.0476C21.5895 32.9621 21.536 32.7889 21.5874 32.6351C22.4058 30.1935 23.2099 28.0442 23.9226 25.8914H21.0118C20.8923 25.8914 20.7836 25.8136 20.7337 25.6922C20.6836 25.5709 20.7014 25.4279 20.7791 25.3263L26.962 17.2336C27.0227 17.1543 27.1125 17.1104 27.2059 17.1142L27.2062 17.1132Z" fill="white"/>
</svg>
