<svg width="50" height="50" viewBox="0 0 50 50" fill="none" xmlns="http://www.w3.org/2000/svg">
<circle cx="25" cy="25" r="25" fill="#303045"/>
<path d="M12.5968 11.6667C11.6874 11.6667 11.0463 12.3086 11.0463 13.1918V28.4425H38.9532V13.1918C38.9532 12.3085 38.3123 11.6667 37.4027 11.6667H12.5962H12.5968ZM23.4495 13.9543C26.018 13.9543 28.1008 16.0029 28.1008 18.5296C28.1008 21.0561 26.0183 23.1049 23.4495 23.1049C20.8811 23.1049 18.7982 21.0563 18.7982 18.5296C18.7982 16.0031 20.8808 13.9543 23.4495 13.9543ZM27.5194 21.4367L30.9714 24.8322C31.2798 25.1355 31.2798 25.6253 30.9714 25.9284C30.6633 26.2317 30.1654 26.2317 29.8571 25.9284L26.4051 22.5328C26.835 22.2256 27.2071 21.8596 27.5194 21.4367ZM10.6592 29.9674L8.72119 33.7799H41.2795L39.3416 29.9674H10.6592ZM8.3335 35.305V36.0675C8.3335 37.0499 9.03313 37.5926 10.2715 37.5926H39.7289C40.9674 37.5926 41.6668 37.0501 41.6668 36.0675V35.305H8.3335Z" fill="white"/>
</svg>
