<svg width="50" height="50" viewBox="0 0 50 50" fill="none" xmlns="http://www.w3.org/2000/svg">
<circle cx="25" cy="25" r="25" fill="#303045"/>
<path d="M25.0009 8.33331C16.7296 8.33331 10 15.0629 10 23.3342C10 27.3874 11.6545 32.2829 14.3167 36.1087C17.3493 40.4656 21.1476 42.8659 25.0108 42.8659C28.8741 42.8659 32.6699 40.4659 35.6951 36.1075C38.3513 32.2844 40 27.3889 40 23.3346C40.0001 15.0632 33.2719 8.33362 25.0009 8.33362V8.33331ZM28.4127 25.2259L35.3622 22.8361C35.6575 22.7347 35.9802 22.9143 36.0411 23.2212C36.4405 25.2622 35.2855 27.3366 33.2633 28.0312C31.2411 28.7275 29.0538 27.8026 28.1144 25.9482C27.9739 25.6688 28.1172 25.3272 28.4125 25.2259L28.4127 25.2259ZM15.505 35.2805C13.0022 31.6849 11.4476 27.1077 11.4476 23.3342C11.4476 15.8911 17.4766 9.83167 24.908 9.78243L22.3183 30.0103C22.2865 30.2549 22.4776 30.4735 22.7265 30.4735H25.9401C26.1861 30.4735 26.3771 30.6878 26.3482 30.9324L25.0976 41.4168C25.0686 41.4183 25.0396 41.4183 25.0107 41.4183C20.4552 41.4183 17.0999 37.5736 15.5049 35.2808L15.505 35.2805Z" fill="white"/>
<path d="M17.1553 21.1868C14.7221 21.1868 12.7417 23.1656 12.7417 25.5989C12.7417 28.0321 14.7219 30.011 17.1553 30.011C19.5871 30.011 21.5674 28.0322 21.5674 25.5989C21.5674 23.1657 19.5871 21.1868 17.1553 21.1868ZM17.1553 28.5634C15.5196 28.5634 14.1893 27.2331 14.1893 25.5988C14.1893 23.9645 15.5195 22.6342 17.1553 22.6342C18.7896 22.6342 20.1199 23.9645 20.1199 25.5988C20.1199 27.2331 18.7896 28.5634 17.1553 28.5634Z" fill="white"/>
</svg>
