<svg width="50" height="50" viewBox="0 0 50 50" fill="none" xmlns="http://www.w3.org/2000/svg">
<circle cx="25" cy="25" r="25" fill="#303045"/>
<path d="M34.3272 14.4373C34.3272 13.8889 34.8515 13.5755 35.4332 13.5755H36.424V8.33337H38.5208V13.5755L39.6469 13.5754C40.2257 13.5754 40.6177 13.8888 40.6177 14.4372V18.8176H34.3273L34.3272 14.4373Z" fill="white"/>
<path d="M41.6665 27.2045C41.6665 29.5204 39.7887 31.3983 37.4727 31.3983C35.8528 31.3983 34.4669 30.4683 33.7739 29.1211C33.4823 28.9345 33.279 28.623 33.279 28.2529C33.279 27.6732 33.7476 27.2045 34.3275 27.2045C34.9083 27.2045 35.376 27.6731 35.376 28.2529C35.376 28.5905 35.2062 28.8789 34.9598 29.0696C35.5279 29.8434 36.439 30.3498 37.4727 30.3498C39.2068 30.3498 40.6179 28.9386 40.6179 27.2046C40.6179 25.4715 39.2067 24.0594 37.4727 24.0594C36.893 24.0594 36.4242 23.5918 36.4242 23.0109V21.9624H35.3758C34.796 21.9624 34.3273 21.4949 34.3273 20.914V19.8655L40.618 19.8658V20.9143C40.618 21.4951 40.1504 21.9628 39.5695 21.9628H38.521V23.1622C40.3265 23.6275 41.6665 25.2526 41.6665 27.2048L41.6665 27.2045Z" fill="white"/>
<path d="M9.18724 34.9252C8.36629 34.4251 8.12096 33.4144 8.52362 32.4164C8.52362 32.4164 12.8535 33.3359 15.1318 33.0622C15.8667 32.9741 17.2853 32.5559 19.1128 32.1196C21.5629 31.5325 22.6177 29.7795 22.7319 29.4325C23.1103 28.2961 23.492 28.185 23.492 28.185C25.0111 27.9124 26.4422 29.9317 27.0691 30.4768C27.3909 30.761 27.9476 30.9538 28.4142 31.0765C30.1798 31.1793 31.9716 31.4959 33.6824 32.1574C33.6824 32.1574 40.5214 34.4733 40.9228 36.652C40.9228 36.652 41.1031 37.7864 36.6757 39.2406C32.2502 40.6948 28.2284 40.9653 24.4279 39.5583C24.4279 39.5583 23.1761 39.1956 22.3268 39.3759C22.2692 39.3885 22.2073 39.3906 22.1444 39.3969L22.1465 39.3989C22.1465 39.3989 18.7496 40.6026 17.2755 40.5563C17.2755 40.5563 16.8436 40.1674 16.7188 39.0204C16.6821 38.6869 16.8477 37.6322 17.849 37.2077C17.1654 36.9047 16.3728 36.7463 15.5781 37.0148C13.8356 37.605 10.7501 40.6947 8.69408 40.6477C8.69408 40.6477 8.47078 38.9221 9.76447 37.605C10.7731 36.5818 9.80647 35.3037 9.1869 34.9253L9.18724 34.9252ZM36.4252 37.6899C37.006 37.6899 37.4737 37.2224 37.4737 36.6414C37.4737 36.0617 37.0061 35.593 36.4252 35.593C35.8455 35.593 35.3767 36.0616 35.3767 36.6414C35.3768 37.2213 35.8455 37.6899 36.4252 37.6899Z" fill="white"/>
</svg>
