<svg width="51" height="50" viewBox="0 0 51 50" fill="none" xmlns="http://www.w3.org/2000/svg">
<circle cx="25.5" cy="25" r="25" fill="#DE5B58"/>
<path fill-rule="evenodd" clip-rule="evenodd" d="M9.66281 33.2338C9.37559 33.4452 9.12602 33.7223 8.93103 34.0537C8.45484 34.8615 8.36742 35.8857 8.69767 36.782L9.96257 40.214C10.3617 41.2952 11.2965 42 12.3327 42H39.6676C40.7039 42 41.6374 41.2952 42.0365 40.214L43.3014 36.782C43.6328 35.8857 43.5454 34.8615 43.0692 34.0537C42.8733 33.7223 42.6235 33.4452 42.3376 33.2338V11.9041C42.3376 10.3002 41.1882 9 39.7702 9H12.2298C10.8121 9 9.66261 10.3002 9.66261 11.9041L9.66281 33.2338ZM11.9966 30.1202V32.76H19.8342C20.2334 32.76 20.6265 32.8657 20.9825 33.0664L22.7258 34.0524C22.7575 34.0707 22.7936 34.0801 22.8297 34.0801H29.171C29.2071 34.0801 29.2422 34.0707 29.2748 34.0524L31.0171 33.0664C31.3742 32.8657 31.7676 32.76 32.1654 32.76H40.0039V30.1202H37.8824C37.3817 30.1202 36.8962 29.9551 36.482 29.6501C36.0689 29.9551 35.5834 30.1202 35.0816 30.1202H32.5914C32.4945 30.2876 32.3814 30.4461 32.2542 30.59C31.7733 31.1339 31.1198 31.44 30.4395 31.44H21.5707C20.8891 31.44 20.2369 31.1339 19.7549 30.59C19.6277 30.4461 19.5146 30.2876 19.4189 30.1202H16.9028C16.4012 30.1202 15.9157 29.9551 15.5024 29.6501C15.0882 29.9551 14.6027 30.1202 14.1022 30.1202H11.9966ZM11.9966 26.1599V27.48H14.1019C14.1637 27.48 14.2231 27.4523 14.2664 27.4021C14.3108 27.3534 14.3353 27.2859 14.3353 27.216V26.4241C14.3353 26.354 14.3108 26.2868 14.2664 26.2379C14.2231 26.1877 14.1637 26.1599 14.1019 26.1599L11.9966 26.1599ZM40.004 26.1599H37.8825C37.8207 26.1599 37.7611 26.1877 37.718 26.2379C37.6736 26.2868 37.6491 26.354 37.6491 26.4241V27.216C37.6491 27.2859 37.6736 27.3534 37.718 27.4021C37.7611 27.4523 37.8207 27.48 37.8825 27.48H40.004V26.1599ZM19.0035 26.1599H16.9029C16.8411 26.1599 16.7814 26.1877 16.7372 26.2379C16.694 26.2868 16.6695 26.354 16.6695 26.4241V27.216C16.6695 27.2859 16.694 27.3534 16.7372 27.4021C16.7814 27.4523 16.8411 27.48 16.9029 27.48H19.0035V26.1599ZM33.007 26.1599V27.48H35.0818C35.1437 27.48 35.2032 27.4523 35.2476 27.4021C35.2908 27.3534 35.3153 27.2859 35.3153 27.216V26.4241C35.3153 26.354 35.2908 26.2868 35.2476 26.2379C35.2032 26.1877 35.1437 26.1599 35.0818 26.1599L33.007 26.1599ZM30.6732 20.8919C31.2682 20.9539 31.8284 21.2482 32.2544 21.7301C32.6802 22.2133 32.9418 22.8469 32.9954 23.52H35.0818C35.5837 23.52 36.0691 23.6851 36.4822 23.9899C36.8964 23.6851 37.3819 23.52 37.8826 23.52H40.0042V11.9041C40.0042 11.7589 39.8992 11.6401 39.7708 11.6401H12.2304C12.1009 11.6401 11.997 11.7589 11.997 11.9041V23.52H14.1023C14.6028 23.52 15.0882 23.6851 15.5025 23.9899C15.9158 23.6851 16.4012 23.52 16.9029 23.52H19.014C19.0677 22.8469 19.329 22.2133 19.755 21.7301C20.181 21.2482 20.7412 20.9539 21.3374 20.8919V18.24C21.3374 15.3241 23.4263 12.96 26.0053 12.96C28.5831 12.96 30.6732 15.3241 30.6732 18.24L30.6732 20.8919ZM28.3391 20.8801V18.24C28.3391 16.7815 27.2935 15.6001 26.0053 15.6001C24.7157 15.6001 23.6713 16.7816 23.6713 18.24V20.8801H28.3391Z" fill="white"/>
</svg>
