<svg width="50" height="50" viewBox="0 0 50 50" fill="none" xmlns="http://www.w3.org/2000/svg">
<circle cx="25" cy="25" r="25" fill="#303045"/>
<path d="M20.6814 9.81272H21.51L21.5102 6.66669H16.9416C16.5309 6.66669 16.2083 6.9893 16.2083 7.39993V17.6812H16.0029C14.529 17.6812 13.3337 18.8765 13.3337 20.3432L13.3335 40.6639C13.3335 42.1306 14.5288 43.3332 16.0028 43.3332L28.4843 43.3334C29.9583 43.3334 31.1536 42.1306 31.1536 40.6641V39.1167H28.7849C27.1496 39.1167 25.8074 37.8407 25.705 36.2275C24.8616 35.5308 24.3484 34.4894 24.3484 33.3601C24.3484 33.1842 24.363 33.0081 24.385 32.8321C23.2705 31.5267 22.6617 29.9208 22.6617 28.2119C22.6617 24.1639 26.1451 20.8639 30.4204 20.8639C30.6698 20.8639 30.9118 20.8787 31.1537 20.8932V20.3432C31.1537 18.8765 29.9584 17.6812 28.4844 17.6812H28.279V7.39994C28.279 6.98929 27.9564 6.66669 27.5457 6.66669H22.9772V10.546C22.9772 10.9566 22.6471 11.2792 22.2439 11.2792H21.4153V12.6506H22.2439C22.6473 12.6506 22.9772 12.9805 22.9772 13.3838V17.6811H21.5105V14.1171H20.6819C20.2786 14.1171 19.9487 13.7945 19.9487 13.3838L19.9485 10.546C19.9485 10.1426 20.2784 9.81255 20.6817 9.81255L20.6814 9.81272Z" fill="white"/>
<path d="M30.4203 22.3324C26.9517 22.3324 24.1284 24.965 24.1284 28.2136C24.1284 29.8122 24.8105 31.3082 26.0205 32.4155C25.8885 32.7087 25.8152 33.0315 25.8152 33.3614C25.8152 34.2707 26.3651 35.0701 27.1645 35.4221V36.0308C27.1645 36.9255 27.8905 37.6515 28.7852 37.6515H32.0559C32.9507 37.6515 33.6766 36.9255 33.6766 36.0308V35.4221C34.4758 35.0701 35.0259 34.2707 35.0259 33.3614C35.0259 33.0313 34.9526 32.7087 34.8132 32.4155C36.0231 31.3082 36.7052 29.8122 36.7052 28.2136C36.7049 24.9649 33.8889 22.3324 30.4205 22.3324H30.4203ZM29.1585 27.9784C29.0196 28.118 28.8362 28.1989 28.638 28.1989C28.4475 28.1989 28.257 28.118 28.1252 27.9784C27.9856 27.8466 27.9047 27.6562 27.9047 27.4657C27.9047 27.2674 27.9856 27.0841 28.1174 26.945C28.3959 26.6736 28.888 26.6736 29.1587 26.945C29.2983 27.0839 29.3714 27.2672 29.3714 27.4657C29.3712 27.6562 29.2981 27.8466 29.1585 27.9784ZM31.153 31.4417C31.153 31.847 30.825 32.1749 30.4196 32.1749C30.0143 32.1749 29.6863 31.847 29.6863 31.4417V30.3653C29.6863 29.9599 30.0143 29.6319 30.4196 29.6319C30.825 29.6319 31.153 29.9599 31.153 30.3653V31.4417ZM32.7155 27.9784C32.5759 28.118 32.3926 28.1989 32.2021 28.1989C32.0045 28.1989 31.8131 28.118 31.6815 27.9784C31.5419 27.8466 31.4617 27.6562 31.4617 27.4657C31.4617 27.2674 31.5419 27.0768 31.6815 26.945C31.9529 26.6736 32.4443 26.6658 32.7157 26.945C32.8546 27.0768 32.9355 27.2672 32.9355 27.4657C32.9353 27.6562 32.8544 27.8466 32.7155 27.9784Z" fill="white"/>
</svg>
