<svg width="50" height="50" viewBox="0 0 50 50" fill="none" xmlns="http://www.w3.org/2000/svg">
<circle cx="25" cy="25" r="25" fill="#303045"/>
<path d="M35.2136 31.4662C35.4497 31.4662 35.6746 31.3239 35.7645 31.0877C35.8844 30.7842 35.7345 30.4394 35.431 30.3194L33.355 29.5025C33.0515 29.3826 32.7067 29.5325 32.5868 29.836C32.4668 30.1395 32.6168 30.4844 32.9203 30.6043L34.9963 31.4212C35.0675 31.4474 35.1424 31.4624 35.2136 31.4624L35.2136 31.4662Z" fill="white"/>
<path d="M33.0521 33.6281C33.2058 33.6281 33.3556 33.5718 33.4718 33.4557C33.7042 33.2233 33.7042 32.8486 33.4718 32.6163L32.0254 31.1699C31.793 30.9375 31.4183 30.9375 31.186 31.1699C30.9536 31.4023 30.9536 31.777 31.186 32.0093L32.6325 33.4557C32.7486 33.5718 32.8985 33.6281 33.0522 33.6281H33.0521Z" fill="white"/>
<path d="M29.8554 32.5676C29.5519 32.6875 29.3982 33.0322 29.5219 33.3359L30.3388 35.4119C30.4287 35.6442 30.6535 35.7904 30.8897 35.7904C30.9609 35.7904 31.0358 35.7754 31.1071 35.7492C31.4106 35.6292 31.5605 35.2845 31.4406 34.9809L30.6237 32.9049C30.5038 32.6014 30.159 32.4515 29.8554 32.5714L29.8554 32.5676Z" fill="white"/>
<path d="M14.2367 18.8828C14.1167 19.1863 14.2667 19.5311 14.5702 19.651L16.6462 20.4679C16.7174 20.4942 16.7923 20.5092 16.8635 20.5092C17.0996 20.5092 17.3245 20.3668 17.4144 20.1307C17.5343 19.8272 17.3844 19.4823 17.0809 19.3624L15.0049 18.5455C14.6976 18.4256 14.3566 18.5755 14.2367 18.879L14.2367 18.8828Z" fill="white"/>
<path d="M16.5341 16.5178C16.3018 16.7502 16.3018 17.1249 16.5341 17.3572L17.9806 18.8036C18.0967 18.9197 18.2466 18.976 18.4003 18.976C18.554 18.976 18.7038 18.9197 18.8201 18.8036C19.0524 18.5712 19.0524 18.1965 18.8201 17.9642L17.3736 16.5178C17.1412 16.2854 16.7665 16.2854 16.5342 16.5178H16.5341Z" fill="white"/>
<path d="M19.9331 17.4477C20.0043 17.4477 20.0792 17.4327 20.1504 17.4065C20.4539 17.2866 20.6076 16.9418 20.484 16.6382L19.667 14.5622C19.5471 14.2587 19.2024 14.105 18.8988 14.2287C18.5953 14.3486 18.4454 14.6933 18.5653 14.997L19.3822 17.073C19.4759 17.3053 19.6969 17.4515 19.9331 17.4515L19.9331 17.4477Z" fill="white"/>
<path d="M10.1372 35.4569C10.362 36.5324 10.8941 37.5179 11.6811 38.3048C12.4643 39.088 13.4499 39.6202 14.5291 39.8488C14.915 39.9312 15.3085 39.9724 15.7057 39.9724C16.3427 39.9724 16.9836 39.8638 17.5982 39.6464C17.838 39.5639 18.0329 39.4815 18.2089 39.3954C18.2952 39.3541 18.3775 39.3055 18.4638 39.2604L18.4974 39.2417C18.9584 38.9868 19.378 38.6683 19.7453 38.301L23.1816 34.8648C23.3615 34.6886 23.5189 34.4938 23.665 34.3065L23.9273 33.9542L23.5075 34.0703C23.3464 34.1153 23.1815 34.1528 23.0129 34.1828C22.6157 34.2615 22.2446 34.2952 21.8475 34.2989H21.8025C21.499 34.2915 21.1767 34.2615 20.8206 34.2014L20.7344 34.1714L18.1713 36.7345C18.0402 36.8694 17.894 36.9893 17.7253 37.113C17.2719 37.4353 16.7585 37.6377 16.2002 37.7164C15.5594 37.8063 14.8961 37.7164 14.3003 37.4541C13.9592 37.3042 13.6445 37.1018 13.3673 36.8508L13.3222 36.8095C13.296 36.7871 13.266 36.7609 13.2398 36.7346C12.4679 35.9627 12.1006 34.8536 12.258 33.7705C12.2842 33.5831 12.3254 33.3957 12.3816 33.2121C12.5502 32.6763 12.8389 32.2041 13.2398 31.8031L16.6836 28.3594C16.8109 28.2357 16.9458 28.1195 17.107 28.0034C17.5604 27.6812 18.0738 27.475 18.6321 27.3926C18.7446 27.3776 18.8532 27.3702 18.9656 27.3626C19.5727 27.329 20.1835 27.4638 20.7194 27.7374C21.0529 27.9097 21.3489 28.1233 21.6 28.3782C22.2483 29.0227 22.608 29.8845 22.6155 30.8027V31.0425L22.8066 30.945C23.2562 30.7951 23.6498 30.5515 23.9833 30.2218L24.6727 29.5324L24.6539 29.4499C24.5152 28.899 24.2942 28.3669 23.9944 27.8723C23.867 27.6625 23.7246 27.4601 23.5746 27.2728C23.4323 27.0966 23.2974 26.9467 23.1625 26.8118C22.6829 26.3322 22.1282 25.9462 21.4836 25.6501C21.1089 25.4816 20.7154 25.3541 20.3182 25.268C19.3814 25.0656 18.3883 25.1106 17.4477 25.3991C17.1592 25.4854 16.8856 25.5939 16.627 25.7176C16.5221 25.7701 16.4209 25.8263 16.3197 25.8862C16.0649 26.0323 15.8177 26.2009 15.5815 26.3846C15.3867 26.5383 15.233 26.6731 15.0981 26.808L11.6693 30.2368C11.3733 30.5329 11.1072 30.8701 10.8748 31.2373L10.8448 31.286C10.8224 31.3196 10.8036 31.3534 10.7812 31.3871C10.7063 31.5145 10.6388 31.6419 10.575 31.773C10.0203 32.9084 9.85921 34.2162 10.1254 35.4566L10.1372 35.4569Z" fill="white"/>
<path d="M18.3965 24.7055C18.8313 24.6531 19.2659 24.6455 19.6893 24.6831C19.8692 24.6981 20.0452 24.7168 20.2177 24.7468L20.2926 24.7618L21.2032 23.8512C21.2444 23.81 21.2707 23.7649 21.2857 23.7275C21.2931 23.7163 21.3081 23.6975 21.3193 23.6713L21.3268 23.6338C21.3418 23.5851 21.3604 23.5289 21.3604 23.4615C21.3604 23.4052 21.3454 23.3603 21.3342 23.3191L21.3192 23.2554C21.293 23.188 21.2518 23.1281 21.1993 23.0793L20.4048 22.2811C20.195 22.0713 19.8502 22.0713 19.6329 22.2811L17.8417 24.0723C17.7743 24.1398 17.7144 24.211 17.6506 24.2821C17.5495 24.3946 17.452 24.5145 17.3583 24.6344L17.0923 24.9829L17.5157 24.8704C17.7743 24.803 18.0516 24.7505 18.3925 24.7093L18.3965 24.7055Z" fill="white"/>
<path d="M39.8668 14.517C39.8593 14.4869 39.8518 14.4569 39.8443 14.4271L39.8293 14.3746C39.5895 13.3515 39.0649 12.4147 38.3192 11.669C37.5361 10.8859 36.5504 10.3537 35.4713 10.1251C34.4782 9.91151 33.4365 9.9714 32.4546 10.305C32.1998 10.3913 31.9825 10.4812 31.7914 10.5748C31.6903 10.6235 31.5966 10.676 31.4879 10.7398C31.0345 10.9946 30.6223 11.3056 30.2551 11.6692L26.8263 15.0979C26.8075 15.1167 26.7888 15.1354 26.7738 15.158L26.7402 15.1954C26.5978 15.3453 26.4666 15.4989 26.3466 15.6526L25.9457 16.1697L26.5078 15.8887C27.171 15.7087 27.8568 15.6451 28.5538 15.6939C28.7862 15.7126 28.996 15.7389 29.1946 15.7725L29.2695 15.7875L31.8214 13.2357C31.9301 13.127 32.05 13.0221 32.1887 12.9172C32.2861 12.8423 32.3835 12.7748 32.4885 12.711C32.8857 12.4712 33.3242 12.3175 33.7926 12.2538C34.8756 12.0964 35.981 12.4674 36.753 13.2356C36.7905 13.2731 36.8205 13.3105 36.8542 13.3481L36.8992 13.3968C37.2139 13.7565 37.4501 14.1612 37.5962 14.5997C37.7647 15.1131 37.8135 15.6638 37.7385 16.196C37.7011 16.4659 37.6298 16.7319 37.5324 16.9905C37.3562 17.4289 37.0976 17.8262 36.7567 18.1672L33.3129 21.6072C33.1856 21.7345 33.0506 21.847 32.8895 21.9669C32.4361 22.2892 31.9227 22.4954 31.3569 22.5815C30.6337 22.6826 29.9554 22.5703 29.3259 22.2592C28.9774 22.0869 28.6627 21.862 28.3965 21.5922C27.7482 20.9477 27.3884 20.0859 27.381 19.1677V18.9279L27.1898 19.0253C26.965 19.1002 26.7439 19.2053 26.5378 19.3364C26.4291 19.4038 26.3168 19.4863 26.1781 19.6024C26.1219 19.6511 26.0656 19.6961 26.0132 19.7486L25.3237 20.438L25.3425 20.5205C25.4699 21.0263 25.6648 21.5135 25.9271 21.9707C26.0956 22.2705 26.298 22.5553 26.5266 22.8213C26.6241 22.9374 26.7252 23.0499 26.8339 23.1586C27.2686 23.5933 27.7745 23.9567 28.3328 24.2341C28.4752 24.3053 28.6176 24.369 28.7638 24.4252C29.071 24.5451 29.3821 24.6426 29.6818 24.7025C30.0677 24.785 30.4575 24.8262 30.8547 24.8262C31.4542 24.8262 32.0576 24.7325 32.6421 24.5414C32.9119 24.4551 33.1517 24.3614 33.3727 24.2529C33.9348 23.9793 34.4482 23.6083 34.9053 23.1587L38.3304 19.7299C38.6114 19.4488 38.87 19.1266 39.0986 18.7706C39.1623 18.6732 39.2223 18.572 39.2785 18.4671L39.3086 18.4109C39.3498 18.3397 39.3872 18.2685 39.4247 18.1935C39.9793 17.0581 40.1405 15.7503 39.8743 14.5099L39.8668 14.517Z" fill="white"/>
<path d="M32.4863 25.0996C32.3776 25.1296 32.2652 25.1558 32.1528 25.1783C31.7068 25.2758 31.2722 25.3244 30.8562 25.3244C30.6276 25.3244 30.3803 25.3056 30.0731 25.2644L29.9756 25.2532C29.9119 25.2457 29.8483 25.2382 29.7845 25.227L29.702 25.2382L28.7988 26.1225C28.6977 26.2237 28.6377 26.3624 28.6377 26.5047C28.6377 26.6284 28.6789 26.7445 28.7538 26.842V26.8794L28.8138 26.9095L29.5933 27.6926C29.6944 27.7937 29.8331 27.8499 29.9793 27.8499C30.1254 27.8499 30.2641 27.7937 30.3652 27.6926L32.1526 25.9052C32.1526 25.9052 32.1714 25.8827 32.1863 25.8639C32.34 25.7066 32.4898 25.5342 32.6247 25.3581L32.6435 25.3393L32.6697 25.2531H32.5385L32.4823 25.1107L32.4863 25.0996Z" fill="white"/>
<path d="M23.0992 21.1911C23.1517 21.2435 23.2117 21.2848 23.2792 21.311C23.3466 21.3372 23.4141 21.3522 23.4853 21.3522C23.6277 21.3522 23.7664 21.296 23.8675 21.1911L25.6549 19.4037C26.0933 18.9653 26.6592 18.6504 27.2887 18.4931L27.3749 18.4706C27.4536 18.4519 27.5323 18.4294 27.611 18.4182C27.9108 18.377 28.2218 18.3732 28.529 18.4108C29.0799 18.4782 29.612 18.673 30.0692 18.9803C30.1104 19.0065 30.1591 19.029 30.1928 19.0327L30.2379 19.0515C30.4178 19.089 30.6126 19.0291 30.7475 18.8904L31.5419 18.0959C31.6544 17.9834 31.7105 17.8299 31.6993 17.6612C31.6955 17.6162 31.6805 17.5787 31.6619 17.53C31.6206 17.4139 31.5607 17.3239 31.4745 17.264C31.3696 17.1891 31.2609 17.1179 31.1222 17.0354C30.695 16.7694 30.2378 16.5596 29.762 16.4208C29.6083 16.3758 29.4585 16.3309 29.301 16.3009C28.9 16.2147 28.4991 16.1736 28.1131 16.1736C27.8733 16.1736 27.6259 16.1924 27.3262 16.2373C26.7154 16.3235 26.142 16.4959 25.6175 16.7507C25.4751 16.8181 25.3364 16.8968 25.2015 16.9755C24.7968 17.2191 24.4221 17.5114 24.0848 17.8449L22.2936 19.6323C22.1925 19.7334 22.1362 19.8721 22.1362 20.0182C22.1362 20.1643 22.1925 20.303 22.2974 20.4041L23.0955 21.1986L23.0992 21.1911Z" fill="white"/>
<path d="M27.7042 30.3529C27.8053 30.2518 27.8616 30.1131 27.8616 29.967C27.8616 29.8208 27.8053 29.6821 27.7042 29.581L26.9061 28.7866C26.8836 28.7641 26.8574 28.7491 26.8348 28.7379C26.6175 28.5842 26.3214 28.6068 26.1378 28.7866L24.3316 30.589C23.8894 31.0237 23.3273 31.3347 22.7016 31.4884L22.6079 31.5108C22.5367 31.5296 22.4655 31.5483 22.3905 31.5595C22.2632 31.5783 22.1357 31.5857 22.0084 31.5895C21.2627 31.6157 20.5469 31.4096 19.9324 30.9974C19.8949 30.9712 19.8575 30.9599 19.805 30.9449C19.7862 30.9375 19.7638 30.9299 19.7413 30.9262C19.5614 30.8961 19.3778 30.9562 19.2467 31.0873L18.4522 31.8818C18.3398 31.9942 18.2836 32.1478 18.2949 32.3165C18.2986 32.3577 18.3137 32.3952 18.3285 32.4402C18.3698 32.5601 18.4334 32.6538 18.5197 32.7175C18.6284 32.7961 18.7445 32.8674 18.8794 32.9535C19.3028 33.2158 19.7562 33.4219 20.2284 33.5606C20.3821 33.6056 20.5357 33.6505 20.6931 33.6843C21.094 33.7705 21.495 33.8116 21.8809 33.8116C22.2256 33.8116 22.5854 33.7742 22.9789 33.6955L23.0501 33.6843C23.0876 33.6768 23.125 33.6731 23.1588 33.6655L23.2075 33.6505C23.6196 33.553 24.0132 33.4107 24.3767 33.2345C24.5266 33.1633 24.6727 33.0808 24.8114 32.9947C25.2086 32.7549 25.5797 32.4663 25.9056 32.1366L27.6968 30.3492L27.7042 30.3529Z" fill="white"/>
</svg>
