<svg width="50" height="50" viewBox="0 0 50 50" fill="none" xmlns="http://www.w3.org/2000/svg">
<circle cx="25" cy="25" r="25" fill="#303045"/>
<path fill-rule="evenodd" clip-rule="evenodd" d="M39.6399 22.924C39.3035 21.0675 38.5881 19.3386 37.4531 17.8008C37.2441 17.5176 37.0671 17.4307 36.6987 17.4886C35.775 17.6328 34.8397 17.7364 33.9056 17.7689C33.4117 17.7862 32.8684 17.7184 32.4209 17.5219C29.7644 16.3551 27.0937 15.2108 24.5013 13.9119C23.0267 13.1731 21.7739 13.0776 20.3382 14.0026C18.7681 15.0139 17.0612 15.8115 15.4216 16.716C13.9811 17.5111 13.7418 19.3756 14.9319 20.429C15.6815 21.0927 16.7869 21.1022 17.8324 20.4934C19.2565 19.6639 20.6911 18.8511 22.1309 18.0479C22.3088 17.9486 22.592 17.8532 22.7458 17.9262C24.009 18.5281 25.297 19.0973 26.4901 19.8206C27.6638 20.5319 28.7295 21.4197 29.854 22.2142L35.6767 26.418C36.0538 26.6827 36.4825 26.8969 36.7974 27.2221C37.5897 28.0409 38.434 28.1332 39.4846 27.7389C39.9381 27.5688 40.0758 27.3982 40.039 26.988C39.9168 25.6315 39.8818 24.2588 39.64 22.9242L39.6399 22.924Z" fill="white"/>
<path fill-rule="evenodd" clip-rule="evenodd" d="M21.9209 30.6827C21.4182 30.7086 20.9276 30.9626 20.4933 31.0947C20.527 30.7092 20.71 30.1711 20.5749 29.7311C20.4346 29.2747 20.0589 28.7876 19.6491 28.5501C19.3236 28.3609 18.7432 28.4123 18.3649 28.5699C17.9771 28.7318 17.6982 29.1537 17.3787 29.4552C17.1974 28.7522 16.7733 28.1995 15.9667 28.1062C15.205 28.018 14.6358 28.3821 14.2519 29.0863C14.1867 28.9805 14.1444 28.9171 14.1069 28.851C13.5888 27.939 12.8883 27.6376 12.042 27.9632C11.1925 28.2902 10.8484 29.0057 11.0699 29.9971C11.2073 30.6111 11.339 31.2273 11.497 31.8362C11.7112 32.6597 12.4107 33.1736 13.2242 33.0419C13.6004 32.981 13.7511 33.1019 13.9489 33.3864C14.4895 34.1646 15.4446 34.2924 16.2022 33.7349C16.3257 33.6438 16.4491 33.5535 16.6546 33.4029C16.4841 34.2761 16.763 34.8745 17.4384 35.251C18.2329 35.6941 18.9123 35.381 19.5258 34.8188C19.6113 35.0847 19.6675 35.324 19.763 35.5459C20.0131 36.1271 20.6781 36.5521 21.2575 36.5206C21.8846 36.4869 22.5698 36.0054 22.7253 35.4027C22.9791 34.4207 23.2119 33.431 23.3937 32.4335C23.5622 31.5153 22.8415 30.6358 21.9208 30.6827L21.9209 30.6827Z" fill="white"/>
<path fill-rule="evenodd" clip-rule="evenodd" d="M10.0253 14.4227C9.38153 14.1316 8.79033 14.4175 8.57751 15.0937C7.39915 18.8358 6.22456 22.5793 5.05295 26.3243C4.86037 26.9401 5.20884 27.5252 5.84239 27.669C6.21811 27.754 6.59682 27.827 6.97466 27.9005C7.50235 28.0032 8.03047 28.1022 8.60861 28.2123C8.58091 23.6044 10.0159 19.4546 11.9098 15.3829C11.2508 15.0438 10.6506 14.7052 10.0254 14.4228L10.0253 14.4227Z" fill="white"/>
<path fill-rule="evenodd" clip-rule="evenodd" d="M43.818 26.3109C43.6358 25.0042 43.5066 23.7299 43.3555 22.4183C43.1244 20.4172 42.912 18.4344 42.6559 16.4365C42.5622 15.7059 42.0432 15.3967 41.335 15.5716C40.2119 15.8484 39.0947 16.0751 37.915 16.3817C40.5646 19.8833 41.3307 23.7047 41.1775 28.0229H42.2799C43.6638 28.0229 44.0085 27.6749 43.818 26.3109Z" fill="white"/>
<path fill-rule="evenodd" clip-rule="evenodd" d="M37.016 28.8322L28.4915 22.7133C26.803 21.3876 25.1077 20.0407 23.0498 19.3054C22.7682 19.2047 22.358 19.2143 22.0972 19.3477C20.7391 20.0425 19.4074 20.7882 18.0722 21.527C16.6653 22.306 14.9446 21.9674 13.8753 20.688C12.9654 19.5993 12.9806 17.8358 13.9072 16.6602C14.0087 16.5316 14.0989 16.3942 14.2346 16.2046C13.9884 16.1908 13.8434 16.199 13.7052 16.1723C12.9749 16.0306 12.5397 16.2819 12.2926 17.0226C11.6937 18.8181 11.0274 20.5912 10.4051 22.379C10.3507 22.5353 9.96767 23.9585 9.92182 24.5104L9.74007 26.2929C9.74007 26.8672 9.72671 27.3487 9.75047 27.8284C9.75567 27.9339 9.8774 28.0621 9.97931 28.1208C10.0268 28.1485 10.1784 28.0556 10.2432 27.9822C10.463 27.734 10.6987 27.4195 10.9336 27.2234C11.7614 26.5334 12.8337 26.608 13.6015 26.9475C14.1996 27.3616 14.1533 27.3616 14.9297 27.1013C15.7354 26.831 16.4959 26.9333 17.2076 27.3668C17.4874 27.5373 17.7063 27.6048 18.0306 27.4445C19.519 26.7095 21.2321 27.8328 21.6264 29.0251C21.6835 29.1978 21.9317 29.3904 22.1183 29.4236C23.9621 29.7522 24.9268 31.4437 24.5066 32.9032C24.3664 33.3902 24.2593 33.8873 24.1444 34.3818C24.0763 34.675 24.0944 34.8953 24.4182 35.0917C25.0393 35.4691 25.6139 35.923 26.2043 36.3504C27.0636 36.9735 28.0097 36.6441 28.2711 35.6267C28.3825 35.1927 28.3194 34.8718 27.8816 34.5972C27.1963 34.167 26.6199 33.6631 25.9242 33.1531C25.5623 32.888 25.792 32.3749 26.2959 32.5871C26.3737 32.6198 26.461 32.6925 26.5425 32.7511C27.6104 33.5206 28.6753 34.294 29.7462 35.0588C30.3295 35.475 30.9674 35.336 31.4363 34.706C31.8846 34.1041 31.8077 33.5491 31.2165 33.1152C30.0065 32.2278 28.7966 31.3408 27.5874 30.4521C27.3352 30.2669 26.9184 30.082 27.1902 29.7159C27.4738 29.3332 27.7714 29.7142 28.0184 29.8903C29.5341 30.972 31.0493 32.0542 32.5493 33.1575C32.9206 33.4305 33.2341 33.7279 33.7464 33.4849C34.3324 33.2064 34.6977 32.7625 34.7309 32.1273C34.743 31.8953 34.5883 31.5677 34.4018 31.4272C33.1089 30.4531 31.791 29.5122 30.4726 28.5725C30.2006 28.3786 29.932 28.1657 30.2014 27.8562C30.2827 27.7624 30.7162 27.8583 30.9019 27.9896C32.5558 29.1577 34.198 30.3425 35.8236 31.5496C36.1518 31.7932 36.4194 31.8074 36.7739 31.655C37.9536 31.1475 38.1029 29.6366 37.016 28.8321L37.016 28.8322Z" fill="white"/>
</svg>
